Splitbeam-Regular.ufo
<glyph name="exclam" format="1">
  <advance width="440"/>
  <unicode hex="0021"/>
  <outline>
    <contour>
      <point x="300" y="154" type="line"/>
      <point x="140" y="154" type="line"/>
      <point x="140" y="0" type="line"/>
      <point x="300" y="0" type="line"/>
    </contour>
    <contour>
      <point x="300" y="1400" type="line"/>
      <point x="140" y="1400" type="line"/>
      <point x="140" y="392" type="line"/>
      <point x="300" y="392" type="line"/>
    </contour>
  </outline>
</glyph>
<glyph name="numbersign" format="1">
  <advance width="1308"/>
  <unicode hex="0023"/>
  <outline>
    <contour>
      <point x="561" y="14" type="line"/>
      <point x="709" y="491" type="line"/>
      <point x="549" y="491" type="line"/>
      <point x="387" y="-32" type="line"/>
      <point x="237" y="14" type="line"/>
      <point x="385" y="491" type="line"/>
      <point x="90" y="491" type="line"/>
      <point x="90" y="646" type="line"/>
      <point x="431" y="646" type="line"/>
      <point x="473" y="778" type="line"/>
      <point x="204" y="778" type="line"/>
      <point x="204" y="933" type="line"/>
      <point x="520" y="933" type="line"/>
      <point x="674" y="1433" type="line"/>
      <point x="824" y="1387" type="line"/>
      <point x="684" y="933" type="line"/>
      <point x="844" y="933" type="line"/>
      <point x="998" y="1433" type="line"/>
      <point x="1149" y="1387" type="line"/>
      <point x="1009" y="933" type="line"/>
      <point x="1218" y="933" type="line"/>
      <point x="1218" y="778" type="line"/>
      <point x="962" y="778" type="line"/>
      <point x="920" y="646" type="line"/>
      <point x="1120" y="646" type="line"/>
      <point x="1120" y="491" type="line"/>
      <point x="873" y="491" type="line"/>
      <point x="711" y="-32" type="line"/>
    </contour>
    <contour>
      <point x="755" y="646" type="line"/>
      <point x="798" y="778" type="line"/>
      <point x="638" y="778" type="line"/>
      <point x="596" y="646" type="line"/>
    </contour>
  </outline>
</glyph>
<glyph name="dollar" format="1">
  <advance width="907"/>
  <unicode hex="0024"/>
  <outline>
    <contour>
      <point x="559" y="132" type="line"/>
      <point x="559" y="-45" type="line"/>
      <point x="403" y="-45" type="line"/>
      <point x="403" y="177" type="line"/>
      <point x="80" y="270" type="line"/>
      <point x="124" y="420" type="line"/>
      <point x="403" y="340" type="line"/>
      <point x="403" y="671" type="line"/>
      <point x="130" y="1132" type="line"/>
      <point x="353" y="1264" type="line"/>
      <point x="403" y="1253" type="line"/>
      <point x="403" y="1445" type="line"/>
      <point x="559" y="1445" type="line"/>
      <point x="559" y="1220" type="line"/>
      <point x="811" y="1167" type="line"/>
      <point x="779" y="1015" type="line"/>
      <point x="559" y="1061" type="line"/>
      <point x="559" y="714" type="line"/>
      <point x="827" y="261" type="line"/>
      <point x="604" y="119" type="line"/>
    </contour>
    <contour>
      <point x="403" y="1094" type="line"/>
      <point x="380" y="1098" type="line"/>
      <point x="319" y="1071" type="line"/>
      <point x="403" y="910" type="line"/>
    </contour>
    <contour>
      <point x="615" y="311" type="line"/>
      <point x="559" y="406" type="line"/>
      <point x="559" y="295" type="line"/>
      <point x="580" y="289" type="line"/>
    </contour>
  </outline>
</glyph>
<glyph name="percent" format="1">
  <advance width="1433"/>
  <unicode hex="0025"/>
  <outline>
    <contour>
      <point x="821" y="300" type="curve" smooth="yes"/>
      <point x="821" y="156"/>
      <point x="938" y="39"/>
      <point x="1082" y="39" type="curve" smooth="yes"/>
      <point x="1226" y="39"/>
      <point x="1343" y="156"/>
      <point x="1343" y="300" type="curve" smooth="yes"/>
      <point x="1343" y="444"/>
      <point x="1226" y="561"/>
      <point x="1082" y="561" type="curve" smooth="yes"/>
      <point x="938" y="561"/>
      <point x="821" y="444"/>
    </contour>
    <contour>
      <point x="960" y="300" type="curve" smooth="yes"/>
      <point x="960" y="367"/>
      <point x="1015" y="422"/>
      <point x="1082" y="422" type="curve" smooth="yes"/>
      <point x="1149" y="422"/>
      <point x="1204" y="367"/>
      <point x="1204" y="300" type="curve" smooth="yes"/>
      <point x="1204" y="232"/>
      <point x="1149" y="177"/>
      <point x="1082" y="177" type="curve" smooth="yes"/>
      <point x="1015" y="177"/>
      <point x="960" y="232"/>
    </contour>
    <contour>
      <point x="90" y="1098" type="curve" smooth="yes"/>
      <point x="90" y="954"/>
      <point x="207" y="837"/>
      <point x="351" y="837" type="curve" smooth="yes"/>
      <point x="495" y="837"/>
      <point x="612" y="954"/>
      <point x="612" y="1098" type="curve" smooth="yes"/>
      <point x="612" y="1242"/>
      <point x="495" y="1359"/>
      <point x="351" y="1359" type="curve" smooth="yes"/>
      <point x="207" y="1359"/>
      <point x="90" y="1242"/>
    </contour>
    <contour>
      <point x="229" y="1098" type="curve" smooth="yes"/>
      <point x="229" y="1166"/>
      <point x="283" y="1220"/>
      <point x="351" y="1220" type="curve" smooth="yes"/>
      <point x="418" y="1220"/>
      <point x="473" y="1166"/>
      <point x="473" y="1098" type="curve" smooth="yes"/>
      <point x="473" y="1031"/>
      <point x="418" y="976"/>
      <point x="351" y="976" type="curve" smooth="yes"/>
      <point x="283" y="976"/>
      <point x="229" y="1031"/>
    </contour>
    <component base="fraction" xOffset="346"/>
  </outline>
</glyph>
<glyph name="ampersand" format="1">
  <advance width="715"/>
  <unicode hex="0026"/>
  <outline>
    <contour>
      <point x="577" y="814" type="line"/>
      <point x="484" y="945" type="line"/>
      <point x="402" y="887" type="line"/>
      <point x="279" y="911" type="line"/>
      <point x="279" y="1014" type="line"/>
      <point x="540" y="1057" type="line"/>
      <point x="540" y="1363" type="line"/>
      <point x="306" y="1445" type="line"/>
      <point x="118" y="1375" type="line"/>
      <point x="118" y="780" type="line"/>
      <point x="439" y="718" type="line"/>
    </contour>
    <contour>
      <point x="308" y="1275" type="line"/>
      <point x="381" y="1250" type="line"/>
      <point x="381" y="1193" type="line"/>
      <point x="279" y="1177" type="line"/>
      <point x="279" y="1264" type="line"/>
    </contour>
    <contour>
      <point x="605" y="438" type="line"/>
      <point x="437" y="438" type="line"/>
      <point x="437" y="-45" type="line"/>
      <point x="278" y="-45" type="line"/>
      <point x="278" y="438" type="line"/>
      <point x="110" y="438" type="line"/>
      <point x="110" y="597" type="line"/>
      <point x="605" y="597" type="line"/>
    </contour>
  </outline>
</glyph>
<glyph name="quotesingle" format="1">
  <advance width="360"/>
  <unicode hex="0027"/>
  <outline>
    <contour>
      <point x="260" y="1445" type="line"/>
      <point x="100" y="1445" type="line"/>
      <point x="100" y="1153" type="line"/>
      <point x="260" y="1153" type="line"/>
    </contour>
  </outline>
</glyph>
<glyph name="parenleft" format="1">
  <advance width="595"/>
  <unicode hex="0028"/>
  <outline>
    <contour>
      <point x="452" y="1445" type="line"/>
      <point x="140" y="1338" type="line"/>
      <point x="140" y="52" type="line"/>
      <point x="466" y="-45" type="line"/>
      <point x="510" y="109" type="line"/>
      <point x="300" y="172" type="line"/>
      <point x="300" y="1222" type="line"/>
      <point x="504" y="1293" type="line"/>
    </contour>
  </outline>
</glyph>
<glyph name="asterisk" format="1">
  <advance width="800"/>
  <unicode hex="002A"/>
  <outline>
    <contour>
      <point x="562" y="476" type="line"/>
      <point x="450" y="616" type="line"/>
      <point x="469" y="431" type="line"/>
      <point x="331" y="431" type="line"/>
      <point x="350" y="616" type="line"/>
      <point x="238" y="476" type="line"/>
      <point x="155" y="559" type="line"/>
      <point x="295" y="671" type="line"/>
      <point x="110" y="652" type="line"/>
      <point x="110" y="790" type="line"/>
      <point x="295" y="771" type="line"/>
      <point x="155" y="883" type="line"/>
      <point x="238" y="966" type="line"/>
      <point x="350" y="826" type="line"/>
      <point x="331" y="1011" type="line"/>
      <point x="469" y="1011" type="line"/>
      <point x="450" y="826" type="line"/>
      <point x="562" y="966" type="line"/>
      <point x="645" y="883" type="line"/>
      <point x="505" y="771" type="line"/>
      <point x="690" y="790" type="line"/>
      <point x="690" y="652" type="line"/>
      <point x="505" y="671" type="line"/>
      <point x="645" y="559" type="line"/>
    </contour>
  </outline>
</glyph>
<glyph name="plus" format="1">
  <advance width="800"/>
  <unicode hex="002B"/>
  <outline>
    <contour>
      <point x="319" y="790" type="line"/>
      <point x="319" y="998" type="line"/>
      <point x="481" y="998" type="line"/>
      <point x="481" y="790" type="line"/>
      <point x="690" y="790" type="line"/>
      <point x="690" y="627" type="line"/>
      <point x="481" y="627" type="line"/>
      <point x="481" y="419" type="line"/>
      <point x="319" y="419" type="line"/>
      <point x="319" y="627" type="line"/>
      <point x="110" y="627" type="line"/>
      <point x="110" y="790" type="line"/>
    </contour>
  </outline>
</glyph>
<glyph name="comma" format="1">
  <advance width="391"/>
  <unicode hex="002C"/>
  <outline>
    <contour>
      <point x="276" y="39" type="line"/>
      <point x="276" y="155" type="line"/>
      <point x="136" y="155" type="line"/>
      <point x="136" y="87" type="line"/>
      <point x="34" y="-43" type="line"/>
      <point x="144" y="-129" type="line"/>
    </contour>
  </outline>
</glyph>
<glyph name="hyphen" format="1">
  <advance width="799"/>
  <unicode hex="002D"/>
  <outline>
    <contour>
      <point x="689" y="790" type="line"/>
      <point x="110" y="790" type="line"/>
      <point x="110" y="627" type="line"/>
      <point x="689" y="627" type="line"/>
    </contour>
  </outline>
</glyph>
<glyph name="period" format="1">
  <advance width="391"/>
  <unicode hex="002E"/>
  <outline>
    <contour>
      <point x="276" y="154" type="line"/>
      <point x="115" y="154" type="line"/>
      <point x="115" y="0" type="line"/>
      <point x="276" y="0" type="line"/>
    </contour>
  </outline>
</glyph>
<glyph name="slash" format="1">
  <advance width="694"/>
  <unicode hex="002F"/>
  <outline>
    <contour>
      <point x="609" y="1392" type="line"/>
      <point x="237" y="-32" type="line"/>
      <point x="85" y="8" type="line"/>
      <point x="456" y="1432" type="line"/>
    </contour>
  </outline>
</glyph>
<glyph name="zero" format="1">
  <advance width="1000"/>
  <unicode hex="0030"/>
  <outline>
    <contour>
      <point x="818" y="50" type="line"/>
      <point x="509" y="-45" type="line"/>
      <point x="181" y="15" type="line"/>
      <point x="181" y="1334" type="line"/>
      <point x="427" y="1445" type="line"/>
      <point x="818" y="1344" type="line"/>
    </contour>
    <contour>
      <point x="658" y="1220" type="line"/>
      <point x="442" y="1276" type="line"/>
      <point x="341" y="1231" type="line"/>
      <point x="341" y="149" type="line"/>
      <point x="499" y="119" type="line"/>
      <point x="658" y="168" type="line"/>
    </contour>
  </outline>
</glyph>
<glyph name="one" format="1">
  <advance width="1000"/>
  <unicode hex="0031"/>
  <outline>
    <contour>
      <point x="657" y="1373" type="line"/>
      <point x="657" y="0" type="line"/>
      <point x="497" y="0" type="line"/>
      <point x="497" y="1245" type="line"/>
      <point x="359" y="1178" type="line"/>
      <point x="289" y="1322" type="line"/>
      <point x="542" y="1445" type="line"/>
    </contour>
  </outline>
</glyph>
<glyph name="two" format="1">
  <advance width="1000"/>
  <unicode hex="0032"/>
  <outline>
    <contour>
      <point x="823" y="1315" type="line"/>
      <point x="823" y="633" type="line"/>
      <point x="324" y="357" type="line"/>
      <point x="324" y="160" type="line"/>
      <point x="813" y="160" type="line"/>
      <point x="813" y="0" type="line"/>
      <point x="164" y="0" type="line"/>
      <point x="164" y="452" type="line"/>
      <point x="663" y="728" type="line"/>
      <point x="663" y="1193" type="line"/>
      <point x="389" y="1271" type="line"/>
      <point x="243" y="1185" type="line"/>
      <point x="161" y="1324" type="line"/>
      <point x="366" y="1445" type="line"/>
    </contour>
  </outline>
</glyph>
<glyph name="three" format="1">
  <advance width="1000"/>
  <unicode hex="0033"/>
  <outline>
    <contour>
      <point x="824" y="90" type="line"/>
      <point x="588" y="-45" type="line"/>
      <point x="119" y="59" type="line"/>
      <point x="148" y="210" type="line"/>
      <point x="561" y="116" type="line"/>
      <point x="670" y="179" type="line"/>
      <point x="670" y="636" type="line"/>
      <point x="332" y="636" type="line"/>
      <point x="332" y="790" type="line"/>
      <point x="670" y="790" type="line"/>
      <point x="670" y="1221" type="line"/>
      <point x="561" y="1284" type="line"/>
      <point x="187" y="1190" type="line"/>
      <point x="158" y="1341" type="line"/>
      <point x="588" y="1445" type="line"/>
      <point x="824" y="1310" type="line"/>
    </contour>
  </outline>
</glyph>
<glyph name="four" format="1">
  <advance width="1000"/>
  <unicode hex="0034"/>
  <outline>
    <contour>
      <point x="860" y="1393" type="line"/>
      <point x="860" y="0" type="line"/>
      <point x="693" y="0" type="line"/>
      <point x="693" y="559" type="line"/>
      <point x="336" y="495" type="line"/>
      <point x="55" y="626" type="line"/>
      <point x="712" y="1445" type="line"/>
    </contour>
    <contour>
      <point x="317" y="687" type="line"/>
      <point x="358" y="668" type="line"/>
      <point x="693" y="727" type="line"/>
      <point x="693" y="1156" type="line"/>
    </contour>
  </outline>
</glyph>
<glyph name="five" format="1">
  <advance width="1000"/>
  <unicode hex="0035"/>
  <outline>
    <contour>
      <point x="857" y="790" type="line"/>
      <point x="842" y="51" type="line"/>
      <point x="533" y="-45" type="line"/>
      <point x="150" y="41" type="line"/>
      <point x="185" y="198" type="line"/>
      <point x="526" y="121" type="line"/>
      <point x="684" y="170" type="line"/>
      <point x="693" y="630" type="line"/>
      <point x="148" y="630" type="line"/>
      <point x="148" y="1400" type="line"/>
      <point x="817" y="1400" type="line"/>
      <point x="817" y="1240" type="line"/>
      <point x="308" y="1240" type="line"/>
      <point x="308" y="790" type="line"/>
    </contour>
  </outline>
</glyph>
<glyph name="six" format="1">
  <advance width="1000"/>
  <unicode hex="0036"/>
  <outline>
    <contour>
      <point x="877" y="790" type="line"/>
      <point x="877" y="64" type="line"/>
      <point x="634" y="-45" type="line"/>
      <point x="143" y="50" type="line"/>
      <point x="143" y="1400" type="line"/>
      <point x="848" y="1400" type="line"/>
      <point x="848" y="1240" type="line"/>
      <point x="303" y="1240" type="line"/>
      <point x="303" y="790" type="line"/>
    </contour>
    <contour>
      <point x="303" y="182" type="line"/>
      <point x="614" y="122" type="line"/>
      <point x="717" y="168" type="line"/>
      <point x="717" y="630" type="line"/>
      <point x="303" y="630" type="line"/>
    </contour>
  </outline>
</glyph>
<glyph name="seven" format="1">
  <advance width="1000"/>
  <unicode hex="0037"/>
  <outline>
    <contour>
      <point x="715" y="788" type="line"/>
      <point x="787" y="822" type="line"/>
      <point x="855" y="676" type="line"/>
      <point x="663" y="587" type="line"/>
      <point x="508" y="-19" type="line"/>
      <point x="356" y="20" type="line"/>
      <point x="506" y="608" type="line"/>
      <point x="306" y="640" type="line"/>
      <point x="332" y="798" type="line"/>
      <point x="546" y="764" type="line"/>
      <point x="669" y="1243" type="line"/>
      <point x="107" y="1243" type="line"/>
      <point x="107" y="1400" type="line"/>
      <point x="872" y="1400" type="line"/>
    </contour>
  </outline>
</glyph>
<glyph name="eight" format="1">
  <advance width="1000"/>
  <unicode hex="0038"/>
  <outline>
    <contour>
      <point x="187" y="1385" type="line"/>
      <point x="501" y="1445" type="line"/>
      <point x="813" y="1385" type="line"/>
      <point x="813" y="637" type="line"/>
      <point x="756" y="610" type="line"/>
      <point x="870" y="564" type="line"/>
      <point x="870" y="0" type="line"/>
      <point x="130" y="0" type="line"/>
      <point x="130" y="564" type="line"/>
      <point x="244" y="610" type="line"/>
      <point x="187" y="637" type="line"/>
    </contour>
    <contour>
      <point x="343" y="1256" type="line"/>
      <point x="343" y="736" type="line"/>
      <point x="501" y="677" type="line"/>
      <point x="657" y="736" type="line"/>
      <point x="657" y="1256" type="line"/>
      <point x="501" y="1284" type="line"/>
    </contour>
    <contour>
      <point x="286" y="459" type="line"/>
      <point x="286" y="156" type="line"/>
      <point x="714" y="156" type="line"/>
      <point x="714" y="459" type="line"/>
      <point x="501" y="532" type="line"/>
    </contour>
  </outline>
</glyph>
<glyph name="nine" format="1">
  <advance width="1000"/>
  <unicode hex="0039"/>
  <outline>
    <contour>
      <point x="499" y="-45" type="line"/>
      <point x="177" y="14" type="line"/>
      <point x="207" y="172" type="line"/>
      <point x="490" y="119" type="line"/>
      <point x="648" y="168" type="line"/>
      <point x="648" y="629" type="line"/>
      <point x="172" y="629" type="line"/>
      <point x="172" y="1334" type="line"/>
      <point x="418" y="1445" type="line"/>
      <point x="808" y="1344" type="line"/>
      <point x="808" y="50" type="line"/>
    </contour>
    <contour>
      <point x="648" y="790" type="line"/>
      <point x="648" y="1220" type="line"/>
      <point x="432" y="1276" type="line"/>
      <point x="332" y="1231" type="line"/>
      <point x="332" y="790" type="line"/>
    </contour>
  </outline>
</glyph>
<glyph name="colon" format="1">
  <advance width="391"/>
  <unicode hex="003A"/>
  <outline>
    <contour>
      <point x="276" y="790" type="line"/>
      <point x="115" y="790" type="line"/>
      <point x="115" y="636" type="line"/>
      <point x="276" y="636" type="line"/>
    </contour>
    <contour>
      <point x="276" y="154" type="line"/>
      <point x="115" y="154" type="line"/>
      <point x="115" y="0" type="line"/>
      <point x="276" y="0" type="line"/>
    </contour>
  </outline>
</glyph>
<glyph name="semicolon" format="1">
  <advance width="391"/>
  <unicode hex="003B"/>
  <outline>
    <contour>
      <point x="276" y="790" type="line"/>
      <point x="115" y="790" type="line"/>
      <point x="115" y="636" type="line"/>
      <point x="276" y="636" type="line"/>
    </contour>
    <contour>
      <point x="276" y="39" type="line"/>
      <point x="276" y="155" type="line"/>
      <point x="136" y="155" type="line"/>
      <point x="136" y="87" type="line"/>
      <point x="34" y="-43" type="line"/>
      <point x="144" y="-129" type="line"/>
    </contour>
  </outline>
</glyph>
<glyph name="less" format="1">
  <advance width="800"/>
  <unicode hex="003C"/>
  <outline>
    <contour>
      <point x="650" y="337" type="line"/>
      <point x="365" y="628" type="line"/>
      <point x="652" y="921" type="line"/>
      <point x="536" y="1034" type="line"/>
      <point x="138" y="628" type="line"/>
      <point x="534" y="224" type="line"/>
    </contour>
  </outline>
</glyph>
<glyph name="equal" format="1">
  <advance width="800"/>
  <unicode hex="003D"/>
  <outline>
    <contour>
      <point x="690" y="790" type="line"/>
      <point x="110" y="790" type="line"/>
      <point x="110" y="630" type="line"/>
      <point x="690" y="630" type="line"/>
    </contour>
    <contour>
      <point x="690" y="441" type="line"/>
      <point x="110" y="441" type="line"/>
      <point x="110" y="281" type="line"/>
      <point x="690" y="281" type="line"/>
    </contour>
  </outline>
</glyph>
<glyph name="question" format="1">
  <advance width="901"/>
  <unicode hex="003F"/>
  <outline>
    <contour>
      <point x="503" y="630" type="line"/>
      <point x="781" y="630" type="line"/>
      <point x="781" y="1344" type="line"/>
      <point x="391" y="1445" type="line"/>
      <point x="90" y="1308" type="line"/>
      <point x="156" y="1162" type="line"/>
      <point x="405" y="1275" type="line"/>
      <point x="621" y="1220" type="line"/>
      <point x="621" y="790" type="line"/>
      <point x="343" y="790" type="line"/>
      <point x="343" y="392" type="line"/>
      <point x="503" y="392" type="line"/>
    </contour>
    <contour>
      <point x="493" y="154" type="line"/>
      <point x="333" y="154" type="line"/>
      <point x="333" y="0" type="line"/>
      <point x="493" y="0" type="line"/>
    </contour>
  </outline>
</glyph>
<glyph name="at" format="1">
  <advance width="1251"/>
  <unicode hex="0040"/>
  <outline>
    <contour>
      <point x="996" y="47" type="line"/>
      <point x="928" y="192" type="line"/>
      <point x="774" y="120" type="line"/>
      <point x="301" y="183" type="line"/>
      <point x="301" y="1210" type="line"/>
      <point x="447" y="1278" type="line"/>
      <point x="960" y="1193" type="line"/>
      <point x="960" y="594" type="line"/>
      <point x="880" y="552" type="line"/>
      <point x="880" y="962" type="line"/>
      <point x="712" y="1022" type="line"/>
      <point x="394" y="940" type="line"/>
      <point x="394" y="396" type="line"/>
      <point x="800" y="329" type="line"/>
      <point x="1121" y="497" type="line"/>
      <point x="1121" y="1328" type="line"/>
      <point x="424" y="1445" type="line"/>
      <point x="140" y="1311" type="line"/>
      <point x="140" y="43" type="line"/>
      <point x="799" y="-45" type="line"/>
    </contour>
    <contour>
      <point x="554" y="817" type="line"/>
      <point x="705" y="856" type="line"/>
      <point x="720" y="850" type="line"/>
      <point x="720" y="505" type="line"/>
      <point x="554" y="532" type="line"/>
    </contour>
  </outline>
</glyph>
<glyph name="A" format="1">
  <advance width="1085"/>
  <unicode hex="0041"/>
  <outline>
    <contour>
      <point x="945" y="1324" type="line"/>
      <point x="945" y="0" type="line"/>
      <point x="785" y="0" type="line"/>
      <point x="785" y="544" type="line"/>
      <point x="701" y="505" type="line"/>
      <point x="301" y="569" type="line"/>
      <point x="301" y="0" type="line"/>
      <point x="140" y="0" type="line"/>
      <point x="140" y="1306" type="line"/>
      <point x="383" y="1445" type="line"/>
    </contour>
    <contour>
      <point x="301" y="1213" type="line"/>
      <point x="301" y="732" type="line"/>
      <point x="677" y="671" type="line"/>
      <point x="785" y="721" type="line"/>
      <point x="785" y="1195" type="line"/>
      <point x="409" y="1276" type="line"/>
    </contour>
  </outline>
</glyph>
<glyph name="B" format="1">
  <advance width="1112"/>
  <unicode hex="0042"/>
  <outline>
    <contour>
      <point x="997" y="545" type="line"/>
      <point x="997" y="0" type="line"/>
      <point x="140" y="0" type="line"/>
      <point x="140" y="1308" type="line"/>
      <point x="380" y="1445" type="line"/>
      <point x="941" y="1327" type="line"/>
      <point x="941" y="617" type="line"/>
      <point x="883" y="590" type="line"/>
    </contour>
    <contour>
      <point x="658" y="512" type="line"/>
      <point x="658" y="656" type="line"/>
      <point x="785" y="717" type="line"/>
      <point x="785" y="1198" type="line"/>
      <point x="408" y="1281" type="line"/>
      <point x="297" y="1217" type="line"/>
      <point x="297" y="156" type="line"/>
      <point x="841" y="156" type="line"/>
      <point x="841" y="439" type="line"/>
    </contour>
  </outline>
</glyph>
<glyph name="D" format="1">
  <advance width="1105"/>
  <unicode hex="0044"/>
  <outline>
    <contour>
      <point x="718" y="1215" type="line"/>
      <point x="862" y="425" type="line"/>
      <point x="759" y="160" type="line"/>
      <point x="300" y="160" type="line"/>
      <point x="300" y="1214" type="line"/>
      <point x="411" y="1277" type="line"/>
    </contour>
    <contour>
      <point x="382" y="1445" type="line"/>
      <point x="140" y="1305" type="line"/>
      <point x="140" y="0" type="line"/>
      <point x="867" y="0" type="line"/>
      <point x="1028" y="411" type="line"/>
      <point x="856" y="1349" type="line"/>
    </contour>
  </outline>
</glyph>
<glyph name="E" format="1">
  <advance width="964"/>
  <unicode hex="0045"/>
  <outline>
    <contour>
      <point x="876" y="153" type="line"/>
      <point x="876" y="0" type="line"/>
      <point x="140" y="0" type="line"/>
      <point x="140" y="1310" type="line"/>
      <point x="376" y="1445" type="line"/>
      <point x="884" y="1341" type="line"/>
      <point x="855" y="1190" type="line"/>
      <point x="403" y="1284" type="line"/>
      <point x="293" y="1221" type="line"/>
      <point x="293" y="790" type="line"/>
      <point x="808" y="790" type="line"/>
      <point x="808" y="636" type="line"/>
      <point x="293" y="636" type="line"/>
      <point x="293" y="153" type="line"/>
    </contour>
  </outline>
</glyph>
<glyph name="J" format="1">
  <advance width="818"/>
  <unicode hex="004A"/>
  <outline>
    <contour>
      <point x="678" y="109" type="line"/>
      <point x="678" y="1400" type="line"/>
      <point x="522" y="1400" type="line"/>
      <point x="522" y="194" type="line"/>
      <point x="410" y="123" type="line"/>
      <point x="73" y="209" type="line"/>
      <point x="35" y="57" type="line"/>
      <point x="438" y="-45" type="line"/>
    </contour>
  </outline>
</glyph>
<glyph name="K" format="1">
  <advance width="1009"/>
  <unicode hex="004B"/>
  <outline>
    <contour>
      <point x="889" y="0" type="line"/>
      <point x="729" y="0" type="line"/>
      <point x="729" y="497" type="line"/>
      <point x="440" y="630" type="line"/>
      <point x="300" y="630" type="line"/>
      <point x="300" y="0" type="line"/>
      <point x="140" y="0" type="line"/>
      <point x="140" y="1400" type="line"/>
      <point x="300" y="1400" type="line"/>
      <point x="300" y="790" type="line"/>
      <point x="557" y="790" type="line"/>
      <point x="665" y="841" type="line"/>
      <point x="665" y="1400" type="line"/>
      <point x="830" y="1400" type="line"/>
      <point x="830" y="741" type="line"/>
      <point x="814" y="734" type="line"/>
      <point x="718" y="678" type="line"/>
      <point x="889" y="599" type="line"/>
    </contour>
  </outline>
</glyph>
<glyph name="M" format="1">
  <advance width="1221"/>
  <unicode hex="004D"/>
  <outline>
    <contour>
      <point x="140" y="1402" type="line"/>
      <point x="140" y="0" type="line"/>
      <point x="300" y="0" type="line"/>
      <point x="300" y="1084" type="line"/>
      <point x="540" y="637" type="line"/>
      <point x="681" y="637" type="line"/>
      <point x="921" y="1084" type="line"/>
      <point x="921" y="0" type="line"/>
      <point x="1081" y="0" type="line"/>
      <point x="1081" y="1402" type="line"/>
      <point x="931" y="1440" type="line"/>
      <point x="611" y="844" type="line"/>
      <point x="291" y="1440" type="line"/>
    </contour>
  </outline>
</glyph>
<glyph name="N" format="1">
  <advance width="1127"/>
  <unicode hex="004E"/>
  <outline>
    <contour>
      <point x="987" y="0" type="line"/>
      <point x="987" y="1400" type="line"/>
      <point x="827" y="1400" type="line"/>
      <point x="827" y="344" type="line"/>
      <point x="292" y="1430" type="line"/>
      <point x="140" y="1395" type="line"/>
      <point x="140" y="0" type="line"/>
      <point x="300" y="0" type="line"/>
      <point x="300" y="1050" type="line"/>
      <point x="835" y="-36" type="line"/>
    </contour>
  </outline>
</glyph>
<glyph name="P" format="1">
  <advance width="1039"/>
  <unicode hex="0050"/>
  <outline>
    <contour>
      <point x="300" y="570" type="line"/>
      <point x="720" y="505" type="line"/>
      <point x="964" y="619" type="line"/>
      <point x="964" y="1325" type="line"/>
      <point x="383" y="1445" type="line"/>
      <point x="140" y="1306" type="line"/>
      <point x="140" y="0" type="line"/>
      <point x="300" y="0" type="line"/>
    </contour>
    <contour>
      <point x="300" y="1213" type="line"/>
      <point x="410" y="1276" type="line"/>
      <point x="804" y="1194" type="line"/>
      <point x="804" y="721" type="line"/>
      <point x="697" y="671" type="line"/>
      <point x="300" y="732" type="line"/>
    </contour>
  </outline>
</glyph>
<glyph name="Q" format="1">
  <advance width="1143"/>
  <unicode hex="0051"/>
  <outline>
    <contour>
      <point x="140" y="1319" type="line"/>
      <point x="140" y="59" type="line"/>
      <point x="760" y="-45" type="line"/>
      <point x="1003" y="82" type="line"/>
      <point x="1003" y="1342" type="line"/>
      <point x="383" y="1445" type="line"/>
    </contour>
    <contour>
      <point x="300" y="1221" type="line"/>
      <point x="409" y="1278" type="line"/>
      <point x="843" y="1206" type="line"/>
      <point x="843" y="179" type="line"/>
      <point x="814" y="164" type="line"/>
      <point x="638" y="515" type="line"/>
      <point x="494" y="444" type="line"/>
      <point x="646" y="137" type="line"/>
      <point x="300" y="195" type="line"/>
    </contour>
  </outline>
</glyph>
<glyph name="T" format="1">
  <advance width="835"/>
  <unicode hex="0054"/>
  <outline>
    <contour>
      <point x="497" y="1245" type="line"/>
      <point x="497" y="0" type="line"/>
      <point x="338" y="0" type="line"/>
      <point x="338" y="1245" type="line"/>
      <point x="70" y="1245" type="line"/>
      <point x="70" y="1400" type="line"/>
      <point x="765" y="1400" type="line"/>
      <point x="765" y="1245" type="line"/>
    </contour>
  </outline>
</glyph>
<glyph name="X" format="1">
  <advance width="948"/>
  <unicode hex="0058"/>
  <outline>
    <contour>
      <point x="554" y="680" type="line"/>
      <point x="889" y="53" type="line"/>
      <point x="748" y="-23" type="line"/>
      <point x="474" y="491" type="line"/>
      <point x="199" y="-23" type="line"/>
      <point x="59" y="53" type="line"/>
      <point x="393" y="680" type="line"/>
      <point x="50" y="1390" type="line"/>
      <point x="198" y="1462" type="line"/>
      <point x="474" y="890" type="line"/>
      <point x="749" y="1462" type="line"/>
      <point x="898" y="1390" type="line"/>
    </contour>
  </outline>
</glyph>
<glyph name="Y" format="1">
  <advance width="923"/>
  <unicode hex="0059"/>
  <outline>
    <contour>
      <point x="25" y="1386" type="line"/>
      <point x="167" y="1461" type="line"/>
      <point x="462" y="907" type="line"/>
      <point x="757" y="1461" type="line"/>
      <point x="898" y="1386" type="line"/>
      <point x="547" y="727" type="line"/>
      <point x="547" y="0" type="line"/>
      <point x="377" y="0" type="line"/>
      <point x="377" y="727" type="line"/>
    </contour>
  </outline>
</glyph>
<glyph name="Z" format="1">
  <advance width="1006"/>
  <unicode hex="005A"/>
  <outline>
    <contour>
      <point x="871" y="47" type="line"/>
      <point x="673" y="-45" type="line"/>
      <point x="45" y="52" type="line"/>
      <point x="712" y="1204" type="line"/>
      <point x="362" y="1276" type="line"/>
      <point x="213" y="1190" type="line"/>
      <point x="133" y="1329" type="line"/>
      <point x="335" y="1445" type="line"/>
      <point x="961" y="1315" type="line"/>
      <point x="301" y="174" type="line"/>
      <point x="649" y="120" type="line"/>
      <point x="803" y="192" type="line"/>
    </contour>
  </outline>
</glyph>
<glyph name="bracketleft" format="1">
  <advance width="488"/>
  <unicode hex="005B"/>
  <outline>
    <contour>
      <point x="383" y="160" type="line"/>
      <point x="300" y="160" type="line"/>
      <point x="300" y="1284" type="line"/>
      <point x="383" y="1284" type="line"/>
      <point x="383" y="1445" type="line"/>
      <point x="140" y="1445" type="line"/>
      <point x="140" y="0" type="line"/>
      <point x="383" y="0" type="line"/>
    </contour>
  </outline>
</glyph>
<glyph name="asciicircum" format="1">
  <advance width="1001"/>
  <unicode hex="005E"/>
  <outline>
    <contour>
      <point x="501" y="1262" type="line"/>
      <point x="792" y="977" type="line"/>
      <point x="906" y="1093" type="line"/>
      <point x="501" y="1488" type="line"/>
      <point x="95" y="1091" type="line"/>
      <point x="209" y="975" type="line"/>
    </contour>
  </outline>
</glyph>
<glyph name="grave" format="1">
  <advance width="426"/>
  <unicode hex="0060"/>
  <outline>
    <contour>
      <point x="228" y="1400" type="move" name="Center"/>
    </contour>
    <contour>
      <point x="26" y="1515" type="line"/>
      <point x="225" y="1515" type="line"/>
      <point x="327" y="1317" type="line"/>
      <point x="195" y="1260" type="line"/>
    </contour>
  </outline>
</glyph>
<glyph name="b" format="1">
  <advance width="1112"/>
  <unicode hex="0062"/>
  <outline>
    <contour>
      <point x="997" y="545" type="line"/>
      <point x="997" y="0" type="line"/>
      <point x="140" y="0" type="line"/>
      <point x="140" y="1308" type="line"/>
      <point x="380" y="1445" type="line"/>
      <point x="941" y="1327" type="line"/>
      <point x="941" y="617" type="line"/>
      <point x="883" y="590" type="line"/>
    </contour>
    <contour>
      <point x="658" y="512" type="line"/>
      <point x="658" y="656" type="line"/>
      <point x="785" y="717" type="line"/>
      <point x="785" y="1198" type="line"/>
      <point x="408" y="1281" type="line"/>
      <point x="297" y="1217" type="line"/>
      <point x="297" y="156" type="line"/>
      <point x="841" y="156" type="line"/>
      <point x="841" y="439" type="line"/>
    </contour>
  </outline>
</glyph>
<glyph name="c" format="1">
  <advance width="975"/>
  <unicode hex="0063"/>
  <outline>
    <contour>
      <point x="517" y="0" type="move" name="BCenter"/>
    </contour>
    <contour>
      <point x="300" y="160" type="line"/>
      <point x="894" y="160" type="line"/>
      <point x="894" y="0" type="line"/>
      <point x="140" y="0" type="line"/>
      <point x="140" y="1306" type="line"/>
      <point x="382" y="1445" type="line"/>
      <point x="900" y="1338" type="line"/>
      <point x="867" y="1181" type="line"/>
      <point x="409" y="1276" type="line"/>
      <point x="300" y="1213" type="line"/>
    </contour>
  </outline>
</glyph>
<glyph name="d" format="1">
  <advance width="1105"/>
  <unicode hex="0064"/>
  <outline>
    <contour>
      <point x="718" y="1215" type="line"/>
      <point x="862" y="425" type="line"/>
      <point x="759" y="160" type="line"/>
      <point x="300" y="160" type="line"/>
      <point x="300" y="1214" type="line"/>
      <point x="411" y="1277" type="line"/>
    </contour>
    <contour>
      <point x="382" y="1445" type="line"/>
      <point x="140" y="1305" type="line"/>
      <point x="140" y="0" type="line"/>
      <point x="867" y="0" type="line"/>
      <point x="1028" y="411" type="line"/>
      <point x="856" y="1349" type="line"/>
    </contour>
  </outline>
</glyph>
<glyph name="f" format="1">
  <advance width="934"/>
  <unicode hex="0066"/>
  <outline>
    <contour>
      <point x="294" y="0" type="line"/>
      <point x="140" y="0" type="line"/>
      <point x="140" y="1310" type="line"/>
      <point x="376" y="1445" type="line"/>
      <point x="884" y="1341" type="line"/>
      <point x="855" y="1190" type="line"/>
      <point x="404" y="1284" type="line"/>
      <point x="294" y="1221" type="line"/>
      <point x="294" y="790" type="line"/>
      <point x="808" y="790" type="line"/>
      <point x="808" y="636" type="line"/>
      <point x="294" y="636" type="line"/>
    </contour>
  </outline>
</glyph>
<glyph name="g" format="1">
  <advance width="1028"/>
  <unicode hex="0067"/>
  <outline>
    <contour>
      <point x="913" y="64" type="line"/>
      <point x="913" y="703" type="line"/>
      <point x="494" y="703" type="line"/>
      <point x="494" y="543" type="line"/>
      <point x="753" y="543" type="line"/>
      <point x="753" y="168" type="line"/>
      <point x="650" y="121" type="line"/>
      <point x="300" y="183" type="line"/>
      <point x="300" y="1217" type="line"/>
      <point x="413" y="1277" type="line"/>
      <point x="868" y="1187" type="line"/>
      <point x="899" y="1344" type="line"/>
      <point x="389" y="1445" type="line"/>
      <point x="140" y="1314" type="line"/>
      <point x="140" y="49" type="line"/>
      <point x="670" y="-45" type="line"/>
    </contour>
  </outline>
</glyph>
<glyph name="h" format="1">
  <advance width="1107"/>
  <unicode hex="0068"/>
  <outline>
    <contour>
      <point x="967" y="0" type="line"/>
      <point x="807" y="0" type="line"/>
      <point x="807" y="544" type="line"/>
      <point x="723" y="505" type="line"/>
      <point x="306" y="569" type="line"/>
      <point x="306" y="0" type="line"/>
      <point x="140" y="0" type="line"/>
      <point x="140" y="1400" type="line"/>
      <point x="306" y="1400" type="line"/>
      <point x="306" y="731" type="line"/>
      <point x="699" y="671" type="line"/>
      <point x="807" y="721" type="line"/>
      <point x="807" y="1400" type="line"/>
      <point x="967" y="1400" type="line"/>
    </contour>
  </outline>
</glyph>
<glyph name="o" format="1">
  <advance width="1143"/>
  <unicode hex="006F"/>
  <outline>
    <contour>
      <point x="140" y="1319" type="line"/>
      <point x="140" y="59" type="line"/>
      <point x="760" y="-45" type="line"/>
      <point x="1003" y="82" type="line"/>
      <point x="1003" y="1342" type="line"/>
      <point x="383" y="1445" type="line"/>
    </contour>
    <contour>
      <point x="300" y="1221" type="line"/>
      <point x="409" y="1278" type="line"/>
      <point x="843" y="1206" type="line"/>
      <point x="843" y="179" type="line"/>
      <point x="734" y="122" type="line"/>
      <point x="300" y="195" type="line"/>
    </contour>
  </outline>
</glyph>
<glyph name="r" format="1">
  <advance width="1103"/>
  <unicode hex="0072"/>
  <outline>
    <contour>
      <point x="1028" y="53" type="line"/>
      <point x="884" y="-18" type="line"/>
      <point x="616" y="519" type="line"/>
      <point x="300" y="569" type="line"/>
      <point x="300" y="0" type="line"/>
      <point x="140" y="0" type="line"/>
      <point x="140" y="1306" type="line"/>
      <point x="382" y="1445" type="line"/>
      <point x="944" y="1324" type="line"/>
      <point x="944" y="619" type="line"/>
      <point x="782" y="544" type="line"/>
    </contour>
    <contour>
      <point x="677" y="671" type="line"/>
      <point x="784" y="721" type="line"/>
      <point x="784" y="1195" type="line"/>
      <point x="409" y="1276" type="line"/>
      <point x="300" y="1213" type="line"/>
      <point x="300" y="732" type="line"/>
    </contour>
  </outline>
</glyph>
<glyph name="s" format="1">
  <advance width="938"/>
  <unicode hex="0073"/>
  <outline>
    <contour>
      <point x="906" y="122" type="line"/>
      <point x="638" y="-49" type="line"/>
      <point x="122" y="87" type="line"/>
      <point x="161" y="238" type="line"/>
      <point x="612" y="119" type="line"/>
      <point x="695" y="173" type="line"/>
      <point x="35" y="1290" type="line"/>
      <point x="304" y="1449" type="line"/>
      <point x="776" y="1347" type="line"/>
      <point x="743" y="1194" type="line"/>
      <point x="331" y="1284" type="line"/>
      <point x="248" y="1235" type="line"/>
    </contour>
  </outline>
</glyph>
<glyph name="u" format="1">
  <advance width="1075"/>
  <unicode hex="0075"/>
  <outline>
    <contour>
      <point x="140" y="1400" type="line"/>
      <point x="300" y="1400" type="line"/>
      <point x="300" y="188" type="line"/>
      <point x="667" y="122" type="line"/>
      <point x="775" y="176" type="line"/>
      <point x="775" y="1400" type="line"/>
      <point x="935" y="1400" type="line"/>
      <point x="935" y="76" type="line"/>
      <point x="690" y="-45" type="line"/>
      <point x="140" y="54" type="line"/>
    </contour>
  </outline>
</glyph>
<glyph name="v" format="1">
  <advance width="936"/>
  <unicode hex="0076"/>
  <outline>
    <contour>
      <point x="891" y="1399" type="line"/>
      <point x="531" y="-12" type="line"/>
      <point x="375" y="-12" type="line"/>
      <point x="45" y="1395" type="line"/>
      <point x="201" y="1432" type="line"/>
      <point x="458" y="347" type="line"/>
      <point x="735" y="1439" type="line"/>
    </contour>
  </outline>
</glyph>
<glyph name="w" format="1">
  <advance width="1282"/>
  <unicode hex="0077"/>
  <outline>
    <contour>
      <point x="1192" y="1399" type="line"/>
      <point x="1075" y="48" type="line"/>
      <point x="926" y="0" type="line"/>
      <point x="643" y="625" type="line"/>
      <point x="355" y="0" type="line"/>
      <point x="207" y="48" type="line"/>
      <point x="90" y="1399" type="line"/>
      <point x="254" y="1399" type="line"/>
      <point x="345" y="375" type="line"/>
      <point x="644" y="1020" type="line"/>
      <point x="928" y="371" type="line"/>
      <point x="1028" y="1399" type="line"/>
    </contour>
  </outline>
</glyph>
<glyph name="braceleft" format="1">
  <advance width="715"/>
  <unicode hex="007B"/>
  <outline>
    <contour>
      <point x="572" y="1445" type="line"/>
      <point x="260" y="1338" type="line"/>
      <point x="260" y="864" type="line"/>
      <point x="70" y="670" type="line"/>
      <point x="260" y="475" type="line"/>
      <point x="260" y="52" type="line"/>
      <point x="586" y="-45" type="line"/>
      <point x="630" y="109" type="line"/>
      <point x="420" y="172" type="line"/>
      <point x="420" y="1222" type="line"/>
      <point x="624" y="1293" type="line"/>
    </contour>
  </outline>
</glyph>
<glyph name="bar" format="1">
  <advance width="440"/>
  <unicode hex="007C"/>
  <outline>
    <contour>
      <point x="300" y="1445" type="line"/>
      <point x="140" y="1445" type="line"/>
      <point x="140" y="-45" type="line"/>
      <point x="300" y="-45" type="line"/>
    </contour>
  </outline>
</glyph>
<glyph name="braceright" format="1">
  <advance width="715"/>
  <unicode hex="007D"/>
  <outline>
    <contour>
      <point x="143" y="1445" type="line"/>
      <point x="455" y="1338" type="line"/>
      <point x="455" y="864" type="line"/>
      <point x="645" y="670" type="line"/>
      <point x="455" y="475" type="line"/>
      <point x="455" y="52" type="line"/>
      <point x="129" y="-45" type="line"/>
      <point x="85" y="109" type="line"/>
      <point x="295" y="172" type="line"/>
      <point x="295" y="1222" type="line"/>
      <point x="91" y="1293" type="line"/>
    </contour>
  </outline>
</glyph>
<glyph name="asciitilde" format="1">
  <advance width="1041"/>
  <unicode hex="007E"/>
  <outline>
    <contour>
      <point x="931" y="746" type="line"/>
      <point x="813" y="854" type="line"/>
      <point x="699" y="729" type="line"/>
      <point x="314" y="826" type="line"/>
      <point x="110" y="709" type="line"/>
      <point x="190" y="570" type="line"/>
      <point x="337" y="655" type="line"/>
      <point x="753" y="550" type="line"/>
    </contour>
  </outline>
</glyph>
<glyph name="cent" format="1">
  <advance width="1000"/>
  <unicode hex="00A2"/>
  <outline>
    <contour>
      <point x="598" y="397" type="line"/>
      <point x="840" y="397" type="line"/>
      <point x="840" y="237" type="line"/>
      <point x="598" y="237" type="line"/>
      <point x="598" y="0" type="line"/>
      <point x="438" y="0" type="line"/>
      <point x="438" y="237" type="line"/>
      <point x="184" y="237" type="line"/>
      <point x="184" y="1072" type="line"/>
      <point x="438" y="1219" type="line"/>
      <point x="438" y="1445" type="line"/>
      <point x="598" y="1445" type="line"/>
      <point x="598" y="1200" type="line"/>
      <point x="850" y="1135" type="line"/>
      <point x="810" y="980" type="line"/>
      <point x="598" y="1034" type="line"/>
    </contour>
    <contour>
      <point x="438" y="1034" type="line"/>
      <point x="344" y="980" type="line"/>
      <point x="344" y="397" type="line"/>
      <point x="438" y="397" type="line"/>
    </contour>
  </outline>
</glyph>
<glyph name="sterling" format="1">
  <advance width="1000"/>
  <unicode hex="00A3"/>
  <outline>
    <contour>
      <point x="387" y="57" type="line"/>
      <point x="242" y="-45" type="line"/>
      <point x="24" y="41" type="line"/>
      <point x="82" y="186" type="line"/>
      <point x="221" y="131" type="line"/>
      <point x="298" y="184" type="line"/>
      <point x="298" y="650" type="line"/>
      <point x="63" y="650" type="line"/>
      <point x="63" y="790" type="line"/>
      <point x="298" y="790" type="line"/>
      <point x="298" y="1302" type="line"/>
      <point x="542" y="1445" type="line"/>
      <point x="803" y="1388" type="line"/>
      <point x="770" y="1235" type="line"/>
      <point x="569" y="1279" type="line"/>
      <point x="458" y="1213" type="line"/>
      <point x="458" y="790" type="line"/>
      <point x="688" y="790" type="line"/>
      <point x="688" y="650" type="line"/>
      <point x="458" y="650" type="line"/>
      <point x="458" y="199" type="line"/>
      <point x="678" y="127" type="line"/>
      <point x="903" y="281" type="line"/>
      <point x="992" y="152" type="line"/>
      <point x="704" y="-45" type="line"/>
    </contour>
  </outline>
</glyph>
<glyph name="currency" format="1">
  <advance width="985"/>
  <unicode hex="00A4"/>
  <outline>
    <contour>
      <point x="773" y="530" type="curve"/>
      <point x="865" y="437" type="line"/>
      <point x="755" y="327" type="line"/>
      <point x="662" y="419" type="line"/>
      <point x="613" y="389"/>
      <point x="555" y="371"/>
      <point x="493" y="371" type="curve" smooth="yes"/>
      <point x="431" y="371"/>
      <point x="373" y="389"/>
      <point x="323" y="419" type="curve"/>
      <point x="231" y="327" type="line"/>
      <point x="120" y="437" type="line"/>
      <point x="213" y="530" type="line"/>
      <point x="183" y="579"/>
      <point x="165" y="637"/>
      <point x="165" y="699" type="curve" smooth="yes"/>
      <point x="165" y="761"/>
      <point x="183" y="819"/>
      <point x="213" y="869" type="curve"/>
      <point x="120" y="960" type="line"/>
      <point x="231" y="1071" type="line"/>
      <point x="323" y="978" type="line"/>
      <point x="373" y="1008"/>
      <point x="431" y="1026"/>
      <point x="493" y="1026" type="curve" smooth="yes"/>
      <point x="555" y="1026"/>
      <point x="613" y="1008"/>
      <point x="662" y="978" type="curve"/>
      <point x="755" y="1071" type="line"/>
      <point x="865" y="960" type="line"/>
      <point x="773" y="869" type="line"/>
      <point x="803" y="819"/>
      <point x="821" y="761"/>
      <point x="821" y="699" type="curve" smooth="yes"/>
      <point x="821" y="637"/>
      <point x="803" y="579"/>
    </contour>
    <contour>
      <point x="656" y="646" type="curve" smooth="yes"/>
      <point x="661" y="663"/>
      <point x="664" y="681"/>
      <point x="664" y="699" type="curve" smooth="yes"/>
      <point x="664" y="718"/>
      <point x="661" y="735"/>
      <point x="656" y="752" type="curve" smooth="yes"/>
      <point x="639" y="804"/>
      <point x="598" y="845"/>
      <point x="546" y="862" type="curve" smooth="yes"/>
      <point x="529" y="868"/>
      <point x="511" y="871"/>
      <point x="493" y="871" type="curve" smooth="yes"/>
      <point x="474" y="871"/>
      <point x="457" y="868"/>
      <point x="440" y="862" type="curve" smooth="yes"/>
      <point x="388" y="845"/>
      <point x="347" y="804"/>
      <point x="330" y="752" type="curve" smooth="yes"/>
      <point x="324" y="735"/>
      <point x="321" y="718"/>
      <point x="321" y="699" type="curve" smooth="yes"/>
      <point x="321" y="681"/>
      <point x="324" y="663"/>
      <point x="330" y="646" type="curve" smooth="yes"/>
      <point x="347" y="594"/>
      <point x="388" y="553"/>
      <point x="440" y="536" type="curve" smooth="yes"/>
      <point x="457" y="531"/>
      <point x="474" y="528"/>
      <point x="493" y="528" type="curve" smooth="yes"/>
      <point x="511" y="528"/>
      <point x="529" y="531"/>
      <point x="546" y="536" type="curve" smooth="yes"/>
      <point x="598" y="553"/>
      <point x="639" y="594"/>
    </contour>
  </outline>
</glyph>
<glyph name="yen" format="1">
  <advance width="1000"/>
  <unicode hex="00A5"/>
  <outline>
    <contour>
      <point x="63" y="1386" type="line"/>
      <point x="205" y="1461" type="line"/>
      <point x="500" y="907" type="line"/>
      <point x="795" y="1461" type="line"/>
      <point x="936" y="1386" type="line"/>
      <point x="618" y="790" type="line"/>
      <point x="739" y="790" type="line"/>
      <point x="739" y="636" type="line"/>
      <point x="585" y="636" type="line"/>
      <point x="585" y="518" type="line"/>
      <point x="739" y="518" type="line"/>
      <point x="739" y="364" type="line"/>
      <point x="585" y="364" type="line"/>
      <point x="585" y="0" type="line"/>
      <point x="415" y="0" type="line"/>
      <point x="415" y="364" type="line"/>
      <point x="225" y="364" type="line"/>
      <point x="225" y="518" type="line"/>
      <point x="415" y="518" type="line"/>
      <point x="415" y="636" type="line"/>
      <point x="225" y="636" type="line"/>
      <point x="225" y="790" type="line"/>
      <point x="381" y="790" type="line"/>
    </contour>
  </outline>
</glyph>
<glyph name="brokenbar" format="1">
  <advance width="440"/>
  <unicode hex="00A6"/>
  <outline>
    <contour>
      <point x="300" y="505" type="line"/>
      <point x="140" y="505" type="line"/>
      <point x="140" y="-45" type="line"/>
      <point x="300" y="-45" type="line"/>
    </contour>
    <contour>
      <point x="300" y="1445" type="line"/>
      <point x="140" y="1445" type="line"/>
      <point x="140" y="790" type="line"/>
      <point x="300" y="790" type="line"/>
    </contour>
  </outline>
</glyph>
<glyph name="section" format="1">
  <advance width="1000"/>
  <unicode hex="00A7"/>
  <outline>
    <contour>
      <point x="857" y="92" type="line"/>
      <point x="468" y="-45" type="line"/>
      <point x="134" y="116" type="line"/>
      <point x="202" y="257" type="line"/>
      <point x="478" y="124" type="line"/>
      <point x="610" y="170" type="line"/>
      <point x="55" y="956" type="line"/>
      <point x="272" y="1079" type="line"/>
      <point x="135" y="1283" type="line"/>
      <point x="409" y="1445" type="line"/>
      <point x="881" y="1342" type="line"/>
      <point x="848" y="1190" type="line"/>
      <point x="436" y="1279" type="line"/>
      <point x="357" y="1233" type="line"/>
      <point x="946" y="359" type="line"/>
      <point x="728" y="274" type="line"/>
    </contour>
    <contour>
      <point x="635" y="406" type="line"/>
      <point x="708" y="434" type="line"/>
      <point x="360" y="950" type="line"/>
      <point x="282" y="905" type="line"/>
    </contour>
  </outline>
</glyph>
<glyph name="dieresis" format="1">
  <advance width="557"/>
  <unicode hex="00A8"/>
  <outline>
    <contour>
      <point x="198" y="1496" type="line"/>
      <point x="53" y="1496" type="line"/>
      <point x="53" y="1342" type="line"/>
      <point x="198" y="1342" type="line"/>
    </contour>
    <contour>
      <point x="480" y="1496" type="line"/>
      <point x="335" y="1496" type="line"/>
      <point x="335" y="1342" type="line"/>
      <point x="480" y="1342" type="line"/>
    </contour>
  </outline>
</glyph>
<glyph name="copyright" format="1">
  <advance width="1232"/>
  <unicode hex="00A9"/>
  <outline>
    <contour>
      <point x="1112" y="948" type="curve"/>
      <point x="1112" y="1222"/>
      <point x="890" y="1445"/>
      <point x="616" y="1445" type="curve" smooth="yes"/>
      <point x="342" y="1445"/>
      <point x="120" y="1222"/>
      <point x="120" y="948" type="curve" smooth="yes"/>
      <point x="120" y="676"/>
      <point x="342" y="453"/>
      <point x="616" y="453" type="curve"/>
      <point x="890" y="453"/>
      <point x="1112" y="676"/>
    </contour>
    <contour>
      <point x="956" y="948" type="curve"/>
      <point x="956" y="762"/>
      <point x="804" y="609"/>
      <point x="616" y="609" type="curve" smooth="yes"/>
      <point x="429" y="609"/>
      <point x="276" y="762"/>
      <point x="276" y="948" type="curve" smooth="yes"/>
      <point x="276" y="1136"/>
      <point x="429" y="1289"/>
      <point x="616" y="1289" type="curve"/>
      <point x="804" y="1289"/>
      <point x="956" y="1136"/>
    </contour>
    <contour>
      <point x="463" y="901" type="line"/>
      <point x="463" y="1028" type="line"/>
      <point x="483" y="1035" type="line"/>
      <point x="563" y="1009" type="line"/>
      <point x="594" y="1097" type="line"/>
      <point x="468" y="1147" type="line"/>
      <point x="373" y="1076" type="line"/>
      <point x="373" y="823" type="line"/>
      <point x="579" y="823" type="line"/>
      <point x="579" y="901" type="line"/>
    </contour>
    <contour>
      <point x="737" y="901" type="line"/>
      <point x="737" y="1028" type="line"/>
      <point x="758" y="1035" type="line"/>
      <point x="839" y="1009" type="line"/>
      <point x="869" y="1097" type="line"/>
      <point x="743" y="1147" type="line"/>
      <point x="646" y="1076" type="line"/>
      <point x="646" y="823" type="line"/>
      <point x="854" y="823" type="line"/>
      <point x="854" y="901" type="line"/>
    </contour>
  </outline>
</glyph>
<glyph name="ordfeminine" format="1">
  <advance width="691"/>
  <unicode hex="00AA"/>
  <outline>
    <contour>
      <point x="280" y="933" type="line"/>
      <point x="411" y="912" type="line"/>
      <point x="411" y="728" type="line"/>
      <point x="571" y="728" type="line"/>
      <point x="571" y="1380" type="line"/>
      <point x="266" y="1445" type="line"/>
      <point x="120" y="1361" type="line"/>
      <point x="120" y="728" type="line"/>
      <point x="280" y="728" type="line"/>
    </contour>
    <contour>
      <point x="280" y="1269" type="line"/>
      <point x="293" y="1276" type="line"/>
      <point x="411" y="1250" type="line"/>
      <point x="411" y="1081" type="line"/>
      <point x="400" y="1076" type="line"/>
      <point x="280" y="1096" type="line"/>
    </contour>
  </outline>
</glyph>
<glyph name="guillemotleft" format="1">
  <advance width="906"/>
  <unicode hex="00AB"/>
  <outline>
    <contour>
      <point x="461" y="381" type="line"/>
      <point x="295" y="628" type="line"/>
      <point x="456" y="867" type="line"/>
      <point x="321" y="956" type="line"/>
      <point x="100" y="628" type="line"/>
      <point x="327" y="290" type="line"/>
    </contour>
    <contour>
      <point x="796" y="381" type="line"/>
      <point x="630" y="628" type="line"/>
      <point x="791" y="867" type="line"/>
      <point x="656" y="956" type="line"/>
      <point x="435" y="628" type="line"/>
      <point x="662" y="290" type="line"/>
    </contour>
  </outline>
</glyph>
<glyph name="logicalnot" format="1">
  <advance width="1147"/>
  <unicode hex="00AC"/>
  <outline>
    <contour>
      <point x="1037" y="790" type="line"/>
      <point x="110" y="790" type="line"/>
      <point x="110" y="628" type="line"/>
      <point x="875" y="628" type="line"/>
      <point x="875" y="510" type="line"/>
      <point x="1037" y="510" type="line"/>
    </contour>
  </outline>
</glyph>
<glyph name="registered" format="1">
  <advance width="1233"/>
  <unicode hex="00AE"/>
  <outline>
    <contour>
      <point x="707" y="724" type="line"/>
      <point x="613" y="843" type="line"/>
      <point x="554" y="839" type="line"/>
      <point x="554" y="732" type="line"/>
      <point x="456" y="732" type="line"/>
      <point x="456" y="1162" type="line"/>
      <point x="554" y="1210" type="line"/>
      <point x="783" y="1161" type="line"/>
      <point x="783" y="905" type="line"/>
      <point x="710" y="875" type="line"/>
      <point x="803" y="772" type="line"/>
    </contour>
    <contour>
      <point x="654" y="954" type="line"/>
      <point x="664" y="958" type="line"/>
      <point x="664" y="1098" type="line"/>
      <point x="586" y="1117" type="line"/>
      <point x="574" y="1110" type="line"/>
      <point x="574" y="970" type="line"/>
    </contour>
    <contour>
      <point x="1113" y="948" type="curve" smooth="yes"/>
      <point x="1113" y="1222"/>
      <point x="890" y="1445"/>
      <point x="616" y="1445" type="curve" smooth="yes"/>
      <point x="343" y="1445"/>
      <point x="120" y="1222"/>
      <point x="120" y="948" type="curve" smooth="yes"/>
      <point x="120" y="676"/>
      <point x="343" y="453"/>
      <point x="616" y="453" type="curve"/>
      <point x="890" y="453"/>
      <point x="1113" y="676"/>
    </contour>
    <contour>
      <point x="957" y="948" type="curve" smooth="yes"/>
      <point x="957" y="762"/>
      <point x="804" y="609"/>
      <point x="616" y="609" type="curve" smooth="yes"/>
      <point x="429" y="609"/>
      <point x="276" y="762"/>
      <point x="276" y="948" type="curve" smooth="yes"/>
      <point x="276" y="1136"/>
      <point x="429" y="1289"/>
      <point x="616" y="1289" type="curve"/>
      <point x="804" y="1289"/>
      <point x="957" y="1136"/>
    </contour>
  </outline>
</glyph>
<glyph name="degree" format="1">
  <advance width="652"/>
  <unicode hex="00B0"/>
  <outline>
    <contour>
      <point x="557" y="1214" type="curve" smooth="yes"/>
      <point x="557" y="1087"/>
      <point x="454" y="983"/>
      <point x="326" y="983" type="curve"/>
      <point x="199" y="983"/>
      <point x="95" y="1087"/>
      <point x="95" y="1214" type="curve" smooth="yes"/>
      <point x="95" y="1341"/>
      <point x="199" y="1445"/>
      <point x="326" y="1445" type="curve" smooth="yes"/>
      <point x="454" y="1445"/>
      <point x="557" y="1341"/>
    </contour>
    <contour>
      <point x="418" y="1214" type="curve" smooth="yes"/>
      <point x="418" y="1265"/>
      <point x="377" y="1306"/>
      <point x="326" y="1306" type="curve"/>
      <point x="276" y="1306"/>
      <point x="234" y="1265"/>
      <point x="234" y="1214" type="curve" smooth="yes"/>
      <point x="234" y="1163"/>
      <point x="276" y="1122"/>
      <point x="326" y="1122" type="curve" smooth="yes"/>
      <point x="377" y="1122"/>
      <point x="418" y="1163"/>
    </contour>
  </outline>
</glyph>
<glyph name="acute" format="1">
  <advance width="431"/>
  <unicode hex="00B4"/>
  <outline>
    <contour>
      <point x="164" y="1400" type="move" name="Center"/>
    </contour>
    <contour>
      <point x="197" y="1260" type="line"/>
      <point x="65" y="1317" type="line"/>
      <point x="167" y="1515" type="line"/>
      <point x="366" y="1515" type="line"/>
    </contour>
  </outline>
</glyph>
<glyph name="paragraph" format="1">
  <advance width="1174"/>
  <unicode hex="00B6"/>
  <outline>
    <contour>
      <point x="876" y="1238" type="line"/>
      <point x="876" y="0" type="line"/>
      <point x="716" y="0" type="line"/>
      <point x="716" y="1238" type="line"/>
      <point x="603" y="1238" type="line"/>
      <point x="603" y="0" type="line"/>
      <point x="442" y="0" type="line"/>
      <point x="442" y="746" type="line"/>
      <point x="264" y="749"/>
      <point x="120" y="894"/>
      <point x="120" y="1073" type="curve" smooth="yes"/>
      <point x="120" y="1251"/>
      <point x="264" y="1400"/>
      <point x="442" y="1400" type="curve"/>
      <point x="1074" y="1400" type="line"/>
      <point x="1074" y="1238" type="line"/>
    </contour>
    <contour>
      <point x="442" y="901" type="curve"/>
      <point x="442" y="1244" type="line"/>
      <point x="350" y="1241"/>
      <point x="276" y="1165"/>
      <point x="276" y="1073" type="curve" smooth="yes"/>
      <point x="276" y="980"/>
      <point x="350" y="904"/>
    </contour>
  </outline>
</glyph>
<glyph name="periodcentered" format="1">
  <advance width="391"/>
  <unicode hex="00B7"/>
  <outline>
    <contour>
      <point x="276" y="790" type="line"/>
      <point x="115" y="790" type="line"/>
      <point x="115" y="636" type="line"/>
      <point x="276" y="636" type="line"/>
    </contour>
  </outline>
</glyph>
<glyph name="cedilla" format="1">
  <advance width="571"/>
  <unicode hex="00B8"/>
  <outline>
    <contour>
      <point x="308" y="0" type="move" name="Center"/>
    </contour>
    <contour>
      <point x="73" y="-211" type="line"/>
      <point x="116" y="-61" type="line"/>
      <point x="245" y="-98" type="line"/>
      <point x="281" y="-75" type="line"/>
      <point x="151" y="129" type="line"/>
      <point x="345" y="129" type="line"/>
      <point x="492" y="-126" type="line"/>
      <point x="270" y="-268" type="line"/>
    </contour>
  </outline>
</glyph>
<glyph name="guillemotright" format="1">
  <advance width="906"/>
  <unicode hex="00BB"/>
  <outline>
    <contour>
      <point x="110" y="381" type="line"/>
      <point x="276" y="628" type="line"/>
      <point x="115" y="867" type="line"/>
      <point x="250" y="956" type="line"/>
      <point x="471" y="628" type="line"/>
      <point x="244" y="290" type="line"/>
    </contour>
    <contour>
      <point x="445" y="381" type="line"/>
      <point x="611" y="628" type="line"/>
      <point x="450" y="867" type="line"/>
      <point x="585" y="956" type="line"/>
      <point x="806" y="628" type="line"/>
      <point x="579" y="290" type="line"/>
    </contour>
  </outline>
</glyph>
<glyph name="Icircumflex" format="1">
  <advance width="440"/>
  <unicode hex="00CE"/>
  <outline>
    <contour>
      <point x="300" y="1180" type="line"/>
      <point x="140" y="1180" type="line"/>
      <point x="140" y="0" type="line"/>
      <point x="300" y="0" type="line"/>
    </contour>
    <component base="circumflex" xOffset="-120"/>
  </outline>
</glyph>
<glyph name="Ntilde" format="1">
  <advance width="1127"/>
  <unicode hex="00D1"/>
  <outline>
    <contour>
      <point x="987" y="0" type="line"/>
      <point x="987" y="1180" type="line"/>
      <point x="827" y="1180" type="line"/>
      <point x="827" y="297" type="line"/>
      <point x="290" y="1220" type="line"/>
      <point x="140" y="1180" type="line"/>
      <point x="140" y="0" type="line"/>
      <point x="300" y="0" type="line"/>
      <point x="300" y="884" type="line"/>
      <point x="838" y="-40" type="line"/>
    </contour>
    <component base="tilde" xOffset="235"/>
  </outline>
</glyph>
<glyph name="Ograve" format="1">
  <advance width="1143"/>
  <unicode hex="00D2"/>
  <outline>
    <contour>
      <point x="1003" y="69" type="line"/>
      <point x="1003" y="1071" type="line"/>
      <point x="382" y="1190" type="line"/>
      <point x="140" y="1051" type="line"/>
      <point x="140" y="43" type="line"/>
      <point x="760" y="-45" type="line"/>
    </contour>
    <contour>
      <point x="301" y="958" type="line"/>
      <point x="410" y="1021" type="line"/>
      <point x="843" y="938" type="line"/>
      <point x="843" y="171" type="line"/>
      <point x="735" y="120" type="line"/>
      <point x="301" y="182" type="line"/>
    </contour>
    <component base="grave" xOffset="340"/>
  </outline>
</glyph>
<glyph name="multiply" format="1">
  <advance width="800"/>
  <unicode hex="00D7"/>
  <outline>
    <contour>
      <point x="661" y="554" type="line"/>
      <point x="547" y="439" type="line"/>
      <point x="401" y="585" type="line"/>
      <point x="254" y="437" type="line"/>
      <point x="139" y="552" type="line"/>
      <point x="286" y="699" type="line"/>
      <point x="137" y="848" type="line"/>
      <point x="252" y="962" type="line"/>
      <point x="401" y="814" type="line"/>
      <point x="548" y="960" type="line"/>
      <point x="663" y="847" type="line"/>
      <point x="516" y="699" type="line"/>
    </contour>
  </outline>
</glyph>
<glyph name="Ugrave" format="1">
  <advance width="1006"/>
  <unicode hex="00D9"/>
  <outline>
    <contour>
      <point x="866" y="70" type="line"/>
      <point x="866" y="1180" type="line"/>
      <point x="705" y="1180" type="line"/>
      <point x="705" y="172" type="line"/>
      <point x="600" y="122" type="line"/>
      <point x="300" y="180" type="line"/>
      <point x="300" y="1180" type="line"/>
      <point x="140" y="1180" type="line"/>
      <point x="140" y="48" type="line"/>
      <point x="620" y="-45" type="line"/>
    </contour>
    <component base="grave" xOffset="275"/>
  </outline>
</glyph>
<glyph name="Yacute" format="1">
  <advance width="974"/>
  <unicode hex="00DD"/>
  <outline>
    <contour>
      <point x="557" y="459" type="line"/>
      <point x="557" y="0" type="line"/>
      <point x="387" y="0" type="line"/>
      <point x="387" y="459" type="line"/>
      <point x="391" y="459" type="line"/>
      <point x="50" y="1126" type="line"/>
      <point x="193" y="1198" type="line"/>
      <point x="475" y="646" type="line"/>
      <point x="784" y="1201" type="line"/>
      <point x="924" y="1123" type="line"/>
    </contour>
    <component base="acute" xOffset="311"/>
  </outline>
</glyph>
<glyph name="germandbls" format="1">
  <advance width="1024"/>
  <unicode hex="00DF"/>
  <outline>
    <contour>
      <point x="140" y="1268" type="line"/>
      <point x="140" y="0" type="line"/>
      <point x="300" y="0" type="line"/>
      <point x="300" y="1190" type="line"/>
      <point x="413" y="1271" type="line"/>
      <point x="609" y="1210" type="line"/>
      <point x="609" y="724" type="line"/>
      <point x="443" y="653" type="line"/>
      <point x="443" y="509" type="line"/>
      <point x="746" y="305" type="line"/>
      <point x="746" y="159" type="line"/>
      <point x="436" y="159" type="line"/>
      <point x="436" y="0" type="line"/>
      <point x="906" y="0" type="line"/>
      <point x="906" y="390" type="line"/>
      <point x="647" y="567" type="line"/>
      <point x="769" y="618" type="line"/>
      <point x="769" y="1326" type="line"/>
      <point x="381" y="1445" type="line"/>
    </contour>
  </outline>
</glyph>
<glyph name="aacute" format="1">
  <advance width="1084"/>
  <unicode hex="00E1"/>
  <outline>
    <contour>
      <point x="944" y="0" type="line"/>
      <point x="784" y="0" type="line"/>
      <point x="784" y="368" type="line"/>
      <point x="700" y="329" type="line"/>
      <point x="300" y="393" type="line"/>
      <point x="300" y="0" type="line"/>
      <point x="140" y="0" type="line"/>
      <point x="140" y="1051" type="line"/>
      <point x="382" y="1190" type="line"/>
      <point x="944" y="1069" type="line"/>
    </contour>
    <contour>
      <point x="784" y="940" type="line"/>
      <point x="409" y="1021" type="line"/>
      <point x="300" y="958" type="line"/>
      <point x="300" y="556" type="line"/>
      <point x="677" y="495" type="line"/>
      <point x="784" y="545" type="line"/>
    </contour>
    <component base="acute" xOffset="397"/>
  </outline>
</glyph>
<glyph name="aring" format="1">
  <advance width="1084"/>
  <unicode hex="00E5"/>
  <outline>
    <contour>
      <point x="791" y="1278" type="curve" smooth="yes"/>
      <point x="791" y="1215"/>
      <point x="765" y="1158"/>
      <point x="724" y="1116" type="curve"/>
      <point x="944" y="1069" type="line"/>
      <point x="944" y="0" type="line"/>
      <point x="784" y="0" type="line"/>
      <point x="784" y="368" type="line"/>
      <point x="700" y="329" type="line"/>
      <point x="300" y="393" type="line"/>
      <point x="300" y="0" type="line"/>
      <point x="140" y="0" type="line"/>
      <point x="140" y="1051" type="line"/>
      <point x="355" y="1174" type="line"/>
      <point x="339" y="1205"/>
      <point x="331" y="1240"/>
      <point x="331" y="1278" type="curve" smooth="yes"/>
      <point x="331" y="1405"/>
      <point x="434" y="1508"/>
      <point x="561" y="1508" type="curve" smooth="yes"/>
      <point x="688" y="1508"/>
      <point x="791" y="1405"/>
    </contour>
    <contour>
      <point x="784" y="940" type="line"/>
      <point x="409" y="1021" type="line"/>
      <point x="300" y="958" type="line"/>
      <point x="300" y="556" type="line"/>
      <point x="677" y="495" type="line"/>
      <point x="784" y="545" type="line"/>
    </contour>
    <contour>
      <point x="652" y="1278" type="curve" smooth="yes"/>
      <point x="652" y="1329"/>
      <point x="611" y="1369"/>
      <point x="561" y="1369" type="curve" smooth="yes"/>
      <point x="511" y="1369"/>
      <point x="470" y="1329"/>
      <point x="470" y="1278" type="curve" smooth="yes"/>
      <point x="470" y="1228"/>
      <point x="511" y="1187"/>
      <point x="561" y="1187" type="curve" smooth="yes"/>
      <point x="611" y="1187"/>
      <point x="652" y="1228"/>
    </contour>
  </outline>
</glyph>
<glyph name="ae" format="1">
  <advance width="1446"/>
  <unicode hex="00E6"/>
  <outline>
    <contour>
      <point x="1348" y="154" type="line"/>
      <point x="1348" y="0" type="line"/>
      <point x="686" y="0" type="line"/>
      <point x="686" y="507" type="line"/>
      <point x="300" y="569" type="line"/>
      <point x="300" y="0" type="line"/>
      <point x="140" y="0" type="line"/>
      <point x="140" y="1311" type="line"/>
      <point x="382" y="1450" type="line"/>
      <point x="753" y="1345" type="line"/>
      <point x="926" y="1445" type="line"/>
      <point x="1356" y="1340" type="line"/>
      <point x="1327" y="1189" type="line"/>
      <point x="954" y="1283" type="line"/>
      <point x="844" y="1220" type="line"/>
      <point x="844" y="790" type="line"/>
      <point x="1280" y="790" type="line"/>
      <point x="1280" y="637" type="line"/>
      <point x="844" y="637" type="line"/>
      <point x="844" y="154" type="line"/>
    </contour>
    <contour>
      <point x="686" y="721" type="line"/>
      <point x="686" y="1200" type="line"/>
      <point x="409" y="1281" type="line"/>
      <point x="300" y="1218" type="line"/>
      <point x="300" y="732" type="line"/>
      <point x="641" y="677" type="line"/>
    </contour>
  </outline>
</glyph>
<glyph name="ccedilla" format="1">
  <advance width="975"/>
  <unicode hex="00E7"/>
  <outline>
    <contour>
      <point x="282" y="-211" type="line"/>
      <point x="325" y="-61" type="line"/>
      <point x="454" y="-98" type="line"/>
      <point x="490" y="-75" type="line"/>
      <point x="442" y="0" type="line"/>
      <point x="140" y="0" type="line"/>
      <point x="140" y="1306" type="line"/>
      <point x="382" y="1445" type="line"/>
      <point x="900" y="1338" type="line"/>
      <point x="867" y="1181" type="line"/>
      <point x="409" y="1276" type="line"/>
      <point x="300" y="1213" type="line"/>
      <point x="300" y="160" type="line"/>
      <point x="894" y="160" type="line"/>
      <point x="894" y="0" type="line"/>
      <point x="628" y="0" type="line"/>
      <point x="701" y="-126" type="line"/>
      <point x="479" y="-268" type="line"/>
    </contour>
  </outline>
</glyph>
<glyph name="egrave" format="1">
  <advance width="984"/>
  <unicode hex="00E8"/>
  <outline>
    <contour>
      <point x="876" y="154" type="line"/>
      <point x="876" y="0" type="line"/>
      <point x="140" y="0" type="line"/>
      <point x="140" y="1054" type="line"/>
      <point x="376" y="1190" type="line"/>
      <point x="884" y="1085" type="line"/>
      <point x="855" y="934" type="line"/>
      <point x="403" y="1028" type="line"/>
      <point x="294" y="965" type="line"/>
      <point x="294" y="613" type="line"/>
      <point x="808" y="613" type="line"/>
      <point x="808" y="459" type="line"/>
      <point x="294" y="459" type="line"/>
      <point x="294" y="154" type="line"/>
    </contour>
    <component base="grave" xOffset="309"/>
  </outline>
</glyph>
<glyph name="igrave" format="1">
  <advance width="440"/>
  <unicode hex="00EC"/>
  <outline>
    <contour>
      <point x="300" y="1180" type="line"/>
      <point x="140" y="1180" type="line"/>
      <point x="140" y="0" type="line"/>
      <point x="300" y="0" type="line"/>
    </contour>
    <component base="grave" xOffset="-8"/>
  </outline>
</glyph>
<glyph name="iacute" format="1">
  <advance width="440"/>
  <unicode hex="00ED"/>
  <outline>
    <contour>
      <point x="300" y="1180" type="line"/>
      <point x="140" y="1180" type="line"/>
      <point x="140" y="0" type="line"/>
      <point x="300" y="0" type="line"/>
    </contour>
    <component base="acute" xOffset="56"/>
  </outline>
</glyph>
<glyph name="idieresis" format="1">
  <advance width="440"/>
  <unicode hex="00EF"/>
  <outline>
    <contour>
      <point x="300" y="1180" type="line"/>
      <point x="140" y="1180" type="line"/>
      <point x="140" y="0" type="line"/>
      <point x="300" y="0" type="line"/>
    </contour>
    <contour>
      <point x="152" y="1489" type="line"/>
      <point x="7" y="1489" type="line"/>
      <point x="7" y="1335" type="line"/>
      <point x="152" y="1335" type="line"/>
    </contour>
    <contour>
      <point x="434" y="1489" type="line"/>
      <point x="289" y="1489" type="line"/>
      <point x="289" y="1335" type="line"/>
      <point x="434" y="1335" type="line"/>
    </contour>
  </outline>
</glyph>
<glyph name="eth" format="1">
  <advance width="1199"/>
  <unicode hex="00F0"/>
  <outline>
    <contour>
      <point x="473" y="1445" type="line"/>
      <point x="231" y="1305" type="line"/>
      <point x="231" y="790" type="line"/>
      <point x="74" y="790" type="line"/>
      <point x="74" y="628" type="line"/>
      <point x="231" y="628" type="line"/>
      <point x="231" y="0" type="line"/>
      <point x="958" y="0" type="line"/>
      <point x="1119" y="411" type="line"/>
      <point x="947" y="1349" type="line"/>
    </contour>
    <contour>
      <point x="649" y="790" type="line"/>
      <point x="391" y="790" type="line"/>
      <point x="391" y="1214" type="line"/>
      <point x="502" y="1277" type="line"/>
      <point x="809" y="1215" type="line"/>
      <point x="953" y="425" type="line"/>
      <point x="850" y="160" type="line"/>
      <point x="391" y="160" type="line"/>
      <point x="391" y="628" type="line"/>
      <point x="649" y="628" type="line"/>
    </contour>
  </outline>
</glyph>
<glyph name="divide" format="1">
  <advance width="800"/>
  <unicode hex="00F7"/>
  <outline>
    <contour>
      <point x="690" y="790" type="line"/>
      <point x="110" y="790" type="line"/>
      <point x="110" y="653" type="line"/>
      <point x="690" y="653" type="line"/>
    </contour>
    <contour>
      <point x="472" y="575" type="line"/>
      <point x="328" y="575" type="line"/>
      <point x="328" y="421" type="line"/>
      <point x="472" y="421" type="line"/>
    </contour>
    <contour>
      <point x="472" y="1022" type="line"/>
      <point x="328" y="1022" type="line"/>
      <point x="328" y="868" type="line"/>
      <point x="472" y="868" type="line"/>
    </contour>
  </outline>
</glyph>
<glyph name="oslash" format="1">
  <advance width="1143"/>
  <unicode hex="00F8"/>
  <outline>
    <contour>
      <point x="1003" y="186" type="line"/>
      <point x="758" y="72" type="line"/>
      <point x="524" y="114" type="line"/>
      <point x="486" y="-32" type="line"/>
      <point x="334" y="8" type="line"/>
      <point x="369" y="142" type="line"/>
      <point x="140" y="183" type="line"/>
      <point x="140" y="1034" type="line"/>
      <point x="381" y="1173" type="line"/>
      <point x="626" y="1126" type="line"/>
      <point x="705" y="1432" type="line"/>
      <point x="858" y="1392" type="line"/>
      <point x="781" y="1096" type="line"/>
      <point x="1003" y="1054" type="line"/>
    </contour>
    <contour>
      <point x="586" y="970" type="line"/>
      <point x="410" y="1004" type="line"/>
      <point x="300" y="941" type="line"/>
      <point x="300" y="317" type="line"/>
      <point x="410" y="297" type="line"/>
    </contour>
    <contour>
      <point x="740" y="941" type="line"/>
      <point x="565" y="269" type="line"/>
      <point x="736" y="239" type="line"/>
      <point x="842" y="288" type="line"/>
      <point x="842" y="921" type="line"/>
    </contour>
  </outline>
</glyph>
<glyph name="udieresis" format="1">
  <advance width="1006"/>
  <unicode hex="00FC"/>
  <outline>
    <contour>
      <point x="866" y="70" type="line"/>
      <point x="866" y="1180" type="line"/>
      <point x="705" y="1180" type="line"/>
      <point x="705" y="172" type="line"/>
      <point x="600" y="122" type="line"/>
      <point x="300" y="180" type="line"/>
      <point x="300" y="1180" type="line"/>
      <point x="140" y="1180" type="line"/>
      <point x="140" y="48" type="line"/>
      <point x="620" y="-45" type="line"/>
    </contour>
    <contour>
      <point x="435" y="1489" type="line"/>
      <point x="290" y="1489" type="line"/>
      <point x="290" y="1335" type="line"/>
      <point x="435" y="1335" type="line"/>
    </contour>
    <contour>
      <point x="717" y="1489" type="line"/>
      <point x="572" y="1489" type="line"/>
      <point x="572" y="1335" type="line"/>
      <point x="717" y="1335" type="line"/>
    </contour>
  </outline>
</glyph>
<glyph name="thorn" format="1">
  <advance width="792"/>
  <unicode hex="00FE"/>
  <outline>
    <contour>
      <point x="667" y="458" type="line"/>
      <point x="422" y="344" type="line"/>
      <point x="300" y="366" type="line"/>
      <point x="300" y="0" type="line"/>
      <point x="140" y="0" type="line"/>
      <point x="140" y="1399" type="line"/>
      <point x="300" y="1399" type="line"/>
      <point x="300" y="1142" type="line"/>
      <point x="667" y="1072" type="line"/>
    </contour>
    <contour>
      <point x="300" y="979" type="line"/>
      <point x="300" y="529" type="line"/>
      <point x="400" y="511" type="line"/>
      <point x="507" y="560" type="line"/>
      <point x="507" y="939" type="line"/>
    </contour>
  </outline>
</glyph>
<glyph name="OE" format="1">
  <advance width="1444"/>
  <unicode hex="0152"/>
  <outline>
    <contour>
      <point x="1346" y="153" type="line"/>
      <point x="1346" y="0" type="line"/>
      <point x="688" y="0" type="line"/>
      <point x="688" y="74" type="line"/>
      <point x="588" y="-18" type="line"/>
      <point x="140" y="170" type="line"/>
      <point x="140" y="1312" type="line"/>
      <point x="386" y="1453" type="line"/>
      <point x="753" y="1347" type="line"/>
      <point x="924" y="1445" type="line"/>
      <point x="1354" y="1341" type="line"/>
      <point x="1325" y="1190" type="line"/>
      <point x="952" y="1284" type="line"/>
      <point x="842" y="1221" type="line"/>
      <point x="842" y="790" type="line"/>
      <point x="1278" y="790" type="line"/>
      <point x="1278" y="636" type="line"/>
      <point x="842" y="636" type="line"/>
      <point x="842" y="153" type="line"/>
    </contour>
    <contour>
      <point x="406" y="1280" type="line"/>
      <point x="300" y="1219" type="line"/>
      <point x="300" y="276" type="line"/>
      <point x="555" y="169" type="line"/>
      <point x="667" y="271" type="line"/>
      <point x="667" y="1205" type="line"/>
    </contour>
  </outline>
</glyph>
<glyph name="scaron" format="1">
  <advance width="941"/>
  <unicode hex="0161"/>
  <outline>
    <contour>
      <point x="871" y="129" type="line"/>
      <point x="292" y="988" type="line"/>
      <point x="370" y="1035" type="line"/>
      <point x="783" y="945" type="line"/>
      <point x="816" y="1098" type="line"/>
      <point x="343" y="1200" type="line"/>
      <point x="70" y="1038" type="line"/>
      <point x="652" y="174" type="line"/>
      <point x="573" y="123" type="line"/>
      <point x="123" y="242" type="line"/>
      <point x="83" y="91" type="line"/>
      <point x="599" y="-45" type="line"/>
    </contour>
    <component base="caron" xOffset="87"/>
  </outline>
</glyph>
<glyph name="zcaron" format="1">
  <advance width="1026"/>
  <unicode hex="017E"/>
  <outline>
    <contour>
      <point x="904" y="47" type="line"/>
      <point x="836" y="192" type="line"/>
      <point x="682" y="120" type="line"/>
      <point x="347" y="172" type="line"/>
      <point x="961" y="1029" type="line"/>
      <point x="323" y="1161" type="line"/>
      <point x="121" y="1045" type="line"/>
      <point x="201" y="906" type="line"/>
      <point x="350" y="992" type="line"/>
      <point x="688" y="922" type="line"/>
      <point x="65" y="54" type="line"/>
      <point x="706" y="-45" type="line"/>
    </contour>
    <component base="caron" xOffset="155"/>
  </outline>
</glyph>
<glyph name="florin" format="1">
  <advance width="1000"/>
  <unicode hex="0192"/>
  <outline>
    <contour>
      <point x="583" y="790" type="line"/>
      <point x="814" y="790" type="line"/>
      <point x="814" y="650" type="line"/>
      <point x="583" y="650" type="line"/>
      <point x="583" y="109" type="line"/>
      <point x="339" y="-45" type="line"/>
      <point x="45" y="32" type="line"/>
      <point x="85" y="183" type="line"/>
      <point x="312" y="124" type="line"/>
      <point x="423" y="195" type="line"/>
      <point x="423" y="650" type="line"/>
      <point x="190" y="650" type="line"/>
      <point x="190" y="790" type="line"/>
      <point x="423" y="790" type="line"/>
      <point x="423" y="1302" type="line"/>
      <point x="669" y="1445" type="line"/>
      <point x="930" y="1388" type="line"/>
      <point x="897" y="1235" type="line"/>
      <point x="696" y="1279" type="line"/>
      <point x="586" y="1213" type="line"/>
    </contour>
  </outline>
</glyph>
<glyph name="circumflex" format="1">
  <advance width="680"/>
  <unicode hex="02C6"/>
  <note>
    W: 140
  </note>
  <outline>
    <contour>
      <point x="340" y="1400" type="move" name="Center"/>
    </contour>
    <contour>
      <point x="171" y="1263" type="line"/>
      <point x="340" y="1372" type="line"/>
      <point x="509" y="1263" type="line"/>
      <point x="585" y="1381" type="line"/>
      <point x="340" y="1538" type="line"/>
      <point x="95" y="1381" type="line"/>
    </contour>
  </outline>
</glyph>
<glyph name="breve" format="1">
  <advance width="650"/>
  <unicode hex="02D8"/>
  <outline>
    <contour>
      <point x="555" y="1479" type="curve"/>
      <point x="416" y="1479" type="line"/>
      <point x="416" y="1429"/>
      <point x="375" y="1388"/>
      <point x="325" y="1388" type="curve" smooth="yes"/>
      <point x="274" y="1388"/>
      <point x="233" y="1429"/>
      <point x="233" y="1479" type="curve"/>
      <point x="95" y="1479" type="line"/>
      <point x="95" y="1353"/>
      <point x="198" y="1249"/>
      <point x="325" y="1249" type="curve"/>
      <point x="451" y="1249"/>
      <point x="555" y="1353"/>
    </contour>
  </outline>
</glyph>
<glyph name="dotaccent" format="1">
  <advance width="350"/>
  <unicode hex="02D9"/>
  <outline>
    <contour>
      <point x="255" y="1477" type="line"/>
      <point x="95" y="1477" type="line"/>
      <point x="95" y="1323" type="line"/>
      <point x="255" y="1323" type="line"/>
    </contour>
  </outline>
</glyph>
<glyph name="ring" format="1">
  <advance width="650"/>
  <unicode hex="02DA"/>
  <outline>
    <contour>
      <point x="325" y="1400" type="move" name="Center"/>
    </contour>
    <contour>
      <point x="555" y="1278" type="curve" smooth="yes"/>
      <point x="555" y="1151"/>
      <point x="452" y="1048"/>
      <point x="325" y="1048" type="curve"/>
      <point x="198" y="1048"/>
      <point x="95" y="1151"/>
      <point x="95" y="1278" type="curve" smooth="yes"/>
      <point x="95" y="1405"/>
      <point x="198" y="1508"/>
      <point x="325" y="1508" type="curve" smooth="yes"/>
      <point x="452" y="1508"/>
      <point x="555" y="1405"/>
    </contour>
    <contour>
      <point x="416" y="1278" type="curve" smooth="yes"/>
      <point x="416" y="1329"/>
      <point x="375" y="1369"/>
      <point x="325" y="1369" type="curve"/>
      <point x="275" y="1369"/>
      <point x="234" y="1329"/>
      <point x="234" y="1278" type="curve" smooth="yes"/>
      <point x="234" y="1228"/>
      <point x="275" y="1187"/>
      <point x="325" y="1187" type="curve" smooth="yes"/>
      <point x="375" y="1187"/>
      <point x="416" y="1228"/>
    </contour>
  </outline>
</glyph>
<glyph name="tilde" format="1">
  <advance width="655"/>
  <unicode hex="02DC"/>
  <note>
    thik:
    – 140
  </note>
  <outline>
    <contour>
      <point x="328" y="1400" type="move" name="Center"/>
    </contour>
    <contour>
      <point x="159" y="1292" type="line"/>
      <point x="215" y="1343" type="line"/>
      <point x="373" y="1274" type="line"/>
      <point x="590" y="1345" type="line"/>
      <point x="546" y="1479" type="line"/>
      <point x="377" y="1424" type="line"/>
      <point x="188" y="1507" type="line"/>
      <point x="65" y="1396" type="line"/>
    </contour>
  </outline>
</glyph>
<glyph name="hungarumlaut" format="1">
  <advance width="669"/>
  <unicode hex="02DD"/>
  <outline>
    <contour>
      <point x="355" y="1486" type="line"/>
      <point x="192" y="1486" type="line"/>
      <point x="89" y="1289" type="line"/>
      <point x="186" y="1228" type="line"/>
    </contour>
    <contour>
      <point x="644" y="1486" type="line"/>
      <point x="481" y="1486" type="line"/>
      <point x="378" y="1289" type="line"/>
      <point x="475" y="1228" type="line"/>
    </contour>
  </outline>
</glyph>
<glyph name="mu" format="1">
  <advance width="1006"/>
  <unicode hex="03BC"/>
  <outline>
    <contour>
      <point x="866" y="244" type="line"/>
      <point x="866" y="78" type="line"/>
      <point x="706" y="78" type="line"/>
      <point x="706" y="187" type="line"/>
      <point x="556" y="132" type="line"/>
      <point x="300" y="346" type="line"/>
      <point x="300" y="0" type="line"/>
      <point x="140" y="0" type="line"/>
      <point x="140" y="1400" type="line"/>
      <point x="300" y="1400" type="line"/>
      <point x="300" y="554" type="line"/>
      <point x="588" y="314" type="line"/>
      <point x="706" y="357" type="line"/>
      <point x="706" y="1400" type="line"/>
      <point x="866" y="1400" type="line"/>
    </contour>
  </outline>
</glyph>
<glyph name="endash" format="1">
  <advance width="845"/>
  <unicode hex="2013"/>
  <outline>
    <contour>
      <point x="735" y="790" type="line"/>
      <point x="110" y="790" type="line"/>
      <point x="110" y="628" type="line"/>
      <point x="735" y="628" type="line"/>
    </contour>
  </outline>
</glyph>
<glyph name="emdash" format="1">
  <advance width="1066"/>
  <unicode hex="2014"/>
  <outline>
    <contour>
      <point x="956" y="790" type="line"/>
      <point x="110" y="790" type="line"/>
      <point x="110" y="628" type="line"/>
      <point x="956" y="628" type="line"/>
    </contour>
  </outline>
</glyph>
<glyph name="quoteleft" format="1">
  <advance width="379"/>
  <unicode hex="2018"/>
  <outline>
    <contour>
      <point x="303" y="1417" type="line"/>
      <point x="239" y="1275" type="line"/>
      <point x="239" y="1199" type="line"/>
      <point x="100" y="1199" type="line"/>
      <point x="100" y="1305" type="line"/>
      <point x="175" y="1474" type="line"/>
    </contour>
  </outline>
</glyph>
<glyph name="quoteright" format="1">
  <advance width="379"/>
  <unicode hex="2019"/>
  <outline>
    <contour>
      <point x="70" y="1227" type="line"/>
      <point x="134" y="1369" type="line"/>
      <point x="134" y="1445" type="line"/>
      <point x="273" y="1445" type="line"/>
      <point x="273" y="1339" type="line"/>
      <point x="198" y="1170" type="line"/>
    </contour>
  </outline>
</glyph>
<glyph name="quotesinglbase" format="1">
  <advance width="379"/>
  <unicode hex="201A"/>
  <outline>
    <contour>
      <point x="76" y="-100" type="line"/>
      <point x="140" y="42" type="line"/>
      <point x="140" y="118" type="line"/>
      <point x="279" y="118" type="line"/>
      <point x="279" y="12" type="line"/>
      <point x="204" y="-157" type="line"/>
    </contour>
  </outline>
</glyph>
<glyph name="quotedblleft" format="1">
  <advance width="614"/>
  <unicode hex="201C"/>
  <outline>
    <contour>
      <point x="303" y="1417" type="line"/>
      <point x="239" y="1275" type="line"/>
      <point x="239" y="1199" type="line"/>
      <point x="100" y="1199" type="line"/>
      <point x="100" y="1305" type="line"/>
      <point x="175" y="1474" type="line"/>
    </contour>
    <contour>
      <point x="538" y="1417" type="line"/>
      <point x="474" y="1275" type="line"/>
      <point x="474" y="1199" type="line"/>
      <point x="335" y="1199" type="line"/>
      <point x="335" y="1305" type="line"/>
      <point x="410" y="1474" type="line"/>
    </contour>
  </outline>
</glyph>
<glyph name="quotedblright" format="1">
  <advance width="614"/>
  <unicode hex="201D"/>
  <outline>
    <contour>
      <point x="70" y="1227" type="line"/>
      <point x="134" y="1369" type="line"/>
      <point x="134" y="1445" type="line"/>
      <point x="273" y="1445" type="line"/>
      <point x="273" y="1339" type="line"/>
      <point x="198" y="1170" type="line"/>
    </contour>
    <contour>
      <point x="305" y="1227" type="line"/>
      <point x="369" y="1369" type="line"/>
      <point x="369" y="1445" type="line"/>
      <point x="508" y="1445" type="line"/>
      <point x="508" y="1339" type="line"/>
      <point x="433" y="1170" type="line"/>
    </contour>
  </outline>
</glyph>
<glyph name="quotedblbase" format="1">
  <advance width="614"/>
  <unicode hex="201E"/>
  <outline>
    <contour>
      <point x="311" y="-100" type="line"/>
      <point x="375" y="42" type="line"/>
      <point x="375" y="118" type="line"/>
      <point x="514" y="118" type="line"/>
      <point x="514" y="12" type="line"/>
      <point x="439" y="-157" type="line"/>
    </contour>
    <contour>
      <point x="76" y="-100" type="line"/>
      <point x="140" y="42" type="line"/>
      <point x="140" y="118" type="line"/>
      <point x="279" y="118" type="line"/>
      <point x="279" y="12" type="line"/>
      <point x="204" y="-157" type="line"/>
    </contour>
  </outline>
</glyph>
<glyph name="dagger" format="1">
  <advance width="824"/>
  <unicode hex="2020"/>
  <outline>
    <contour>
      <point x="724" y="790" type="line"/>
      <point x="724" y="650" type="line"/>
      <point x="473" y="650" type="line"/>
      <point x="473" y="0" type="line"/>
      <point x="333" y="0" type="line"/>
      <point x="333" y="650" type="line"/>
      <point x="100" y="650" type="line"/>
      <point x="100" y="790" type="line"/>
      <point x="333" y="790" type="line"/>
      <point x="333" y="1400" type="line"/>
      <point x="473" y="1400" type="line"/>
      <point x="473" y="790" type="line"/>
    </contour>
  </outline>
</glyph>
<glyph name="daggerdbl" format="1">
  <advance width="825"/>
  <unicode hex="2021"/>
  <outline>
    <contour>
      <point x="473" y="497" type="line"/>
      <point x="725" y="497" type="line"/>
      <point x="725" y="357" type="line"/>
      <point x="473" y="357" type="line"/>
      <point x="473" y="0" type="line"/>
      <point x="333" y="0" type="line"/>
      <point x="333" y="357" type="line"/>
      <point x="100" y="357" type="line"/>
      <point x="100" y="497" type="line"/>
      <point x="333" y="497" type="line"/>
      <point x="333" y="650" type="line"/>
      <point x="100" y="650" type="line"/>
      <point x="100" y="790" type="line"/>
      <point x="333" y="790" type="line"/>
      <point x="333" y="1400" type="line"/>
      <point x="473" y="1400" type="line"/>
      <point x="473" y="790" type="line"/>
      <point x="725" y="790" type="line"/>
      <point x="725" y="650" type="line"/>
      <point x="473" y="650" type="line"/>
    </contour>
  </outline>
</glyph>
<glyph name="bullet" format="1">
  <advance width="624"/>
  <unicode hex="2022"/>
  <outline>
    <contour>
      <point x="312" y="890" type="curve" smooth="yes"/>
      <point x="206" y="890"/>
      <point x="120" y="805"/>
      <point x="120" y="699" type="curve" smooth="yes"/>
      <point x="120" y="593"/>
      <point x="206" y="507"/>
      <point x="312" y="507" type="curve" smooth="yes"/>
      <point x="418" y="507"/>
      <point x="504" y="593"/>
      <point x="504" y="699" type="curve" smooth="yes"/>
      <point x="504" y="805"/>
      <point x="418" y="890"/>
    </contour>
  </outline>
</glyph>
<glyph name="ellipsis" format="1">
  <advance width="911"/>
  <unicode hex="2026"/>
  <outline>
    <contour>
      <point x="526" y="154" type="line"/>
      <point x="381" y="154" type="line"/>
      <point x="381" y="0" type="line"/>
      <point x="526" y="0" type="line"/>
    </contour>
    <contour>
      <point x="243" y="154" type="line"/>
      <point x="98" y="154" type="line"/>
      <point x="98" y="0" type="line"/>
      <point x="243" y="0" type="line"/>
    </contour>
    <contour>
      <point x="809" y="154" type="line"/>
      <point x="664" y="154" type="line"/>
      <point x="664" y="0" type="line"/>
      <point x="809" y="0" type="line"/>
    </contour>
  </outline>
</glyph>
<glyph name="perthousand" format="1">
  <advance width="1373"/>
  <unicode hex="2030"/>
  <outline>
    <contour>
      <point x="1035" y="206" type="curve" smooth="yes"/>
      <point x="1035" y="333"/>
      <point x="932" y="437"/>
      <point x="804" y="437" type="curve" smooth="yes"/>
      <point x="677" y="437"/>
      <point x="574" y="333"/>
      <point x="574" y="206" type="curve" smooth="yes"/>
      <point x="574" y="79"/>
      <point x="677" y="-25"/>
      <point x="804" y="-25" type="curve"/>
      <point x="932" y="-25"/>
      <point x="1035" y="79"/>
    </contour>
    <contour>
      <point x="896" y="206" type="curve" smooth="yes"/>
      <point x="896" y="155"/>
      <point x="855" y="114"/>
      <point x="804" y="114" type="curve" smooth="yes"/>
      <point x="754" y="114"/>
      <point x="712" y="155"/>
      <point x="712" y="206" type="curve" smooth="yes"/>
      <point x="712" y="257"/>
      <point x="754" y="298"/>
      <point x="804" y="298" type="curve"/>
      <point x="855" y="298"/>
      <point x="896" y="257"/>
    </contour>
    <contour>
      <point x="1263" y="734" type="curve" smooth="yes"/>
      <point x="1263" y="861"/>
      <point x="1159" y="963"/>
      <point x="1032" y="963" type="curve" smooth="yes"/>
      <point x="905" y="963"/>
      <point x="801" y="861"/>
      <point x="801" y="734" type="curve" smooth="yes"/>
      <point x="801" y="606"/>
      <point x="905" y="503"/>
      <point x="1032" y="503" type="curve"/>
      <point x="1159" y="503"/>
      <point x="1263" y="606"/>
    </contour>
    <contour>
      <point x="1124" y="734" type="curve" smooth="yes"/>
      <point x="1124" y="683"/>
      <point x="1083" y="642"/>
      <point x="1032" y="642" type="curve" smooth="yes"/>
      <point x="981" y="642"/>
      <point x="940" y="683"/>
      <point x="940" y="734" type="curve" smooth="yes"/>
      <point x="940" y="784"/>
      <point x="981" y="826"/>
      <point x="1032" y="826" type="curve"/>
      <point x="1083" y="826"/>
      <point x="1124" y="784"/>
    </contour>
    <contour>
      <point x="561" y="1194" type="curve" smooth="yes"/>
      <point x="561" y="1321"/>
      <point x="458" y="1425"/>
      <point x="331" y="1425" type="curve" smooth="yes"/>
      <point x="203" y="1425"/>
      <point x="100" y="1321"/>
      <point x="100" y="1194" type="curve" smooth="yes"/>
      <point x="100" y="1067"/>
      <point x="203" y="963"/>
      <point x="331" y="963" type="curve"/>
      <point x="458" y="963"/>
      <point x="561" y="1067"/>
    </contour>
    <contour>
      <point x="423" y="1194" type="curve" smooth="yes"/>
      <point x="423" y="1143"/>
      <point x="381" y="1102"/>
      <point x="331" y="1102" type="curve" smooth="yes"/>
      <point x="280" y="1102"/>
      <point x="239" y="1143"/>
      <point x="239" y="1194" type="curve" smooth="yes"/>
      <point x="239" y="1245"/>
      <point x="280" y="1286"/>
      <point x="331" y="1286" type="curve"/>
      <point x="381" y="1286"/>
      <point x="423" y="1245"/>
    </contour>
    <component base="fraction" xOffset="194"/>
  </outline>
</glyph>
<glyph name="guilsinglleft" format="1">
  <advance width="571"/>
  <unicode hex="2039"/>
  <outline>
    <contour>
      <point x="461" y="381" type="line"/>
      <point x="295" y="628" type="line"/>
      <point x="456" y="867" type="line"/>
      <point x="321" y="956" type="line"/>
      <point x="100" y="628" type="line"/>
      <point x="327" y="290" type="line"/>
    </contour>
  </outline>
</glyph>
<glyph name="guilsinglright" format="1">
  <advance width="571"/>
  <unicode hex="203A"/>
  <outline>
    <contour>
      <point x="110" y="381" type="line"/>
      <point x="276" y="628" type="line"/>
      <point x="115" y="867" type="line"/>
      <point x="250" y="956" type="line"/>
      <point x="471" y="628" type="line"/>
      <point x="244" y="290" type="line"/>
    </contour>
  </outline>
</glyph>
<glyph name="fraction" format="1">
  <advance width="739"/>
  <unicode hex="2044"/>
  <outline>
    <contour>
      <point x="749" y="1378" type="line"/>
      <point x="605" y="1441" type="line"/>
      <point x="-10" y="21" type="line"/>
      <point x="135" y="-41" type="line"/>
    </contour>
  </outline>
</glyph>
<glyph name="Euro" format="1">
  <advance width="1000"/>
  <unicode hex="20AC"/>
  <outline>
    <contour>
      <point x="925" y="59" type="line"/>
      <point x="417" y="-45" type="line"/>
      <point x="181" y="90" type="line"/>
      <point x="181" y="366" type="line"/>
      <point x="30" y="366" type="line"/>
      <point x="30" y="520" type="line"/>
      <point x="181" y="520" type="line"/>
      <point x="181" y="636" type="line"/>
      <point x="30" y="636" type="line"/>
      <point x="30" y="790" type="line"/>
      <point x="181" y="790" type="line"/>
      <point x="181" y="1309" type="line"/>
      <point x="417" y="1445" type="line"/>
      <point x="925" y="1340" type="line"/>
      <point x="896" y="1189" type="line"/>
      <point x="444" y="1283" type="line"/>
      <point x="334" y="1220" type="line"/>
      <point x="334" y="790" type="line"/>
      <point x="849" y="790" type="line"/>
      <point x="849" y="636" type="line"/>
      <point x="334" y="636" type="line"/>
      <point x="334" y="520" type="line"/>
      <point x="849" y="520" type="line"/>
      <point x="849" y="366" type="line"/>
      <point x="334" y="366" type="line"/>
      <point x="334" y="179" type="line"/>
      <point x="444" y="116" type="line"/>
      <point x="896" y="210" type="line"/>
    </contour>
  </outline>
</glyph>
<glyph name="trademark" format="1">
  <advance width="1336"/>
  <unicode hex="2122"/>
  <outline>
    <contour>
      <point x="594" y="1280" type="line"/>
      <point x="416" y="1280" type="line"/>
      <point x="416" y="727" type="line"/>
      <point x="277" y="727" type="line"/>
      <point x="277" y="1280" type="line"/>
      <point x="100" y="1280" type="line"/>
      <point x="100" y="1400" type="line"/>
      <point x="594" y="1400" type="line"/>
    </contour>
    <contour>
      <point x="1216" y="1366" type="line"/>
      <point x="1098" y="1400" type="line"/>
      <point x="950" y="1157" type="line"/>
      <point x="801" y="1400" type="line"/>
      <point x="684" y="1366" type="line"/>
      <point x="684" y="727" type="line"/>
      <point x="811" y="727" type="line"/>
      <point x="811" y="1141" type="line"/>
      <point x="950" y="915" type="line"/>
      <point x="1089" y="1141" type="line"/>
      <point x="1089" y="727" type="line"/>
      <point x="1216" y="727" type="line"/>
    </contour>
  </outline>
</glyph>
<glyph name="minus" format="1">
  <advance width="800"/>
  <unicode hex="2212"/>
  <outline>
    <contour>
      <point x="690" y="790" type="line"/>
      <point x="110" y="790" type="line"/>
      <point x="110" y="628" type="line"/>
      <point x="690" y="628" type="line"/>
    </contour>
  </outline>
</glyph>
<glyph name="returnsymbol" format="1">
  <advance width="1502"/>
  <unicode hex="23CE"/>
  <outline>
    <contour>
      <point x="436" y="669" type="line"/>
      <point x="60" y="429" type="line"/>
      <point x="436" y="188" type="line"/>
      <point x="436" y="349" type="line"/>
      <point x="1367" y="349" type="line"/>
      <point x="1367" y="1160" type="line"/>
      <point x="1207" y="1160" type="line"/>
      <point x="1207" y="509" type="line"/>
      <point x="436" y="509" type="line"/>
    </contour>
  </outline>
</glyph>
<glyph name="whitecircle" format="1">
  <advance width="1577"/>
  <unicode hex="25CB"/>
  <outline>
    <contour>
      <point x="788" y="1382" type="curve" smooth="yes"/>
      <point x="412" y="1382"/>
      <point x="106" y="1076"/>
      <point x="106" y="700" type="curve" smooth="yes"/>
      <point x="106" y="324"/>
      <point x="412" y="18"/>
      <point x="788" y="18" type="curve" smooth="yes"/>
      <point x="1165" y="18"/>
      <point x="1471" y="324"/>
      <point x="1471" y="700" type="curve" smooth="yes"/>
      <point x="1471" y="1076"/>
      <point x="1165" y="1382"/>
    </contour>
    <contour>
      <point x="788" y="203" type="curve" smooth="yes"/>
      <point x="515" y="203"/>
      <point x="292" y="426"/>
      <point x="292" y="700" type="curve" smooth="yes"/>
      <point x="292" y="974"/>
      <point x="515" y="1197"/>
      <point x="788" y="1197" type="curve" smooth="yes"/>
      <point x="1062" y="1197"/>
      <point x="1285" y="974"/>
      <point x="1285" y="700" type="curve" smooth="yes"/>
      <point x="1285" y="426"/>
      <point x="1062" y="203"/>
    </contour>
  </outline>
</glyph>
<glyph name="blackcircle" format="1">
  <advance width="1577"/>
  <unicode hex="25CF"/>
  <outline>
    <contour>
      <point x="788" y="1382" type="curve" smooth="yes"/>
      <point x="412" y="1382"/>
      <point x="106" y="1076"/>
      <point x="106" y="700" type="curve" smooth="yes"/>
      <point x="106" y="324"/>
      <point x="412" y="18"/>
      <point x="788" y="18" type="curve" smooth="yes"/>
      <point x="1165" y="18"/>
      <point x="1471" y="324"/>
      <point x="1471" y="700" type="curve" smooth="yes"/>
      <point x="1471" y="1076"/>
      <point x="1165" y="1382"/>
    </contour>
  </outline>
</glyph>
<glyph name="warningsign" format="1">
  <advance width="1822"/>
  <unicode hex="26A0"/>
  <outline>
    <contour>
      <point x="911" y="430" type="curve"/>
      <point x="965" y="430"/>
      <point x="1010" y="386"/>
      <point x="1010" y="331" type="curve" smooth="yes"/>
      <point x="1010" y="276"/>
      <point x="965" y="232"/>
      <point x="911" y="232" type="curve" smooth="yes"/>
      <point x="856" y="232"/>
      <point x="812" y="276"/>
      <point x="812" y="331" type="curve" smooth="yes"/>
      <point x="812" y="386"/>
      <point x="856" y="430"/>
    </contour>
    <contour>
      <point x="75" y="104" type="line"/>
      <point x="134" y="0" type="line"/>
      <point x="1688" y="0" type="line"/>
      <point x="1747" y="104" type="line"/>
      <point x="972" y="1445" type="line"/>
      <point x="852" y="1445" type="line"/>
    </contour>
    <contour>
      <point x="308" y="170" type="line"/>
      <point x="911" y="1214" type="line"/>
      <point x="1513" y="169" type="line"/>
    </contour>
    <contour>
      <point x="812" y="922" type="curve"/>
      <point x="812" y="981"/>
      <point x="860" y="1021"/>
      <point x="911" y="1021" type="curve" smooth="yes"/>
      <point x="962" y="1021"/>
      <point x="1010" y="981"/>
      <point x="1010" y="922" type="curve"/>
      <point x="1005" y="843"/>
      <point x="1000" y="789"/>
      <point x="978" y="579" type="curve" smooth="yes"/>
      <point x="974" y="542"/>
      <point x="949" y="507"/>
      <point x="911" y="507" type="curve" smooth="yes"/>
      <point x="873" y="507"/>
      <point x="849" y="542"/>
      <point x="845" y="579" type="curve" smooth="yes"/>
      <point x="823" y="789"/>
      <point x="818" y="843"/>
    </contour>
  </outline>
</glyph>
<glyph name="envelope" format="1">
  <advance width="1947"/>
  <unicode hex="2709"/>
  <outline>
    <contour>
      <point x="135" y="1290" type="line"/>
      <point x="135" y="0" type="line"/>
      <point x="1812" y="0" type="line"/>
      <point x="1812" y="1290" type="line"/>
    </contour>
    <contour>
      <point x="295" y="276" type="line"/>
      <point x="295" y="1014" type="line"/>
      <point x="664" y="644" type="line"/>
    </contour>
    <contour>
      <point x="974" y="392" type="curve"/>
      <point x="1012" y="392"/>
      <point x="1046" y="408"/>
      <point x="1073" y="434" type="curve" smooth="yes"/>
      <point x="1168" y="528" type="line"/>
      <point x="1536" y="160" type="line"/>
      <point x="410" y="160" type="line"/>
      <point x="779" y="528" type="line"/>
      <point x="874" y="434" type="line" smooth="yes"/>
      <point x="901" y="408"/>
      <point x="936" y="392"/>
    </contour>
    <contour>
      <point x="974" y="565" type="line"/>
      <point x="411" y="1130" type="line"/>
      <point x="1536" y="1130" type="line"/>
    </contour>
    <contour>
      <point x="1284" y="644" type="line"/>
      <point x="1652" y="1014" type="line"/>
      <point x="1652" y="276" type="line"/>
    </contour>
  </outline>
</glyph>
<glyph name="fontversion" format="1">
  <advance width="1400"/>
  <unicode hex="E000"/>
  <outline>
    <contour>
      <point x="662" y="1070" type="line"/>
      <point x="615" y="886" type="line"/>
      <point x="595" y="886" type="line"/>
      <point x="552" y="1069" type="line"/>
      <point x="572" y="1074" type="line"/>
      <point x="606" y="933" type="line"/>
      <point x="642" y="1075" type="line"/>
    </contour>
    <contour>
      <point x="785" y="908" type="line"/>
      <point x="785" y="888" type="line"/>
      <point x="689" y="888" type="line"/>
      <point x="689" y="1058" type="line"/>
      <point x="720" y="1076" type="line"/>
      <point x="786" y="1062" type="line"/>
      <point x="782" y="1043" type="line"/>
      <point x="724" y="1055" type="line"/>
      <point x="709" y="1047" type="line"/>
      <point x="709" y="991" type="line"/>
      <point x="776" y="991" type="line"/>
      <point x="776" y="971" type="line"/>
      <point x="709" y="971" type="line"/>
      <point x="709" y="908" type="line"/>
    </contour>
    <contour>
      <point x="930" y="895" type="line"/>
      <point x="911" y="886" type="line"/>
      <point x="877" y="955" type="line"/>
      <point x="835" y="962" type="line"/>
      <point x="835" y="888" type="line"/>
      <point x="815" y="888" type="line"/>
      <point x="815" y="1058" type="line"/>
      <point x="846" y="1076" type="line"/>
      <point x="919" y="1060" type="line"/>
      <point x="919" y="968" type="line"/>
      <point x="898" y="959" type="line"/>
    </contour>
    <contour>
      <point x="885" y="975" type="line"/>
      <point x="898" y="982" type="line"/>
      <point x="898" y="1043" type="line"/>
      <point x="850" y="1054" type="line"/>
      <point x="835" y="1046" type="line"/>
      <point x="835" y="983" type="line"/>
    </contour>
    <contour>
      <point x="1060" y="904" type="line"/>
      <point x="1025" y="882" type="line"/>
      <point x="958" y="899" type="line"/>
      <point x="963" y="919" type="line"/>
      <point x="1021" y="903" type="line"/>
      <point x="1032" y="910" type="line"/>
      <point x="946" y="1056" type="line"/>
      <point x="981" y="1076" type="line"/>
      <point x="1043" y="1063" type="line"/>
      <point x="1038" y="1043" type="line"/>
      <point x="985" y="1055" type="line"/>
      <point x="974" y="1048" type="line"/>
    </contour>
    <contour>
      <point x="1105" y="1070" type="line"/>
      <point x="1084" y="1070" type="line"/>
      <point x="1084" y="888" type="line"/>
      <point x="1105" y="888" type="line"/>
    </contour>
    <contour>
      <point x="1142" y="1059" type="line"/>
      <point x="1142" y="896" type="line"/>
      <point x="1222" y="882" type="line"/>
      <point x="1254" y="899" type="line"/>
      <point x="1254" y="1062" type="line"/>
      <point x="1173" y="1076" type="line"/>
    </contour>
    <contour>
      <point x="1162" y="1047" type="line"/>
      <point x="1176" y="1054" type="line"/>
      <point x="1233" y="1045" type="line"/>
      <point x="1233" y="911" type="line"/>
      <point x="1219" y="904" type="line"/>
      <point x="1162" y="913" type="line"/>
    </contour>
    <contour>
      <point x="1400" y="888" type="line"/>
      <point x="1400" y="1070" type="line"/>
      <point x="1379" y="1070" type="line"/>
      <point x="1379" y="933" type="line"/>
      <point x="1310" y="1074" type="line"/>
      <point x="1290" y="1069" type="line"/>
      <point x="1290" y="888" type="line"/>
      <point x="1311" y="888" type="line"/>
      <point x="1311" y="1024" type="line"/>
      <point x="1380" y="883" type="line"/>
    </contour>
    <contour>
      <point x="601" y="787" type="line"/>
      <point x="601" y="608" type="line"/>
      <point x="580" y="608" type="line"/>
      <point x="580" y="770" type="line"/>
      <point x="562" y="761" type="line"/>
      <point x="553" y="780" type="line"/>
      <point x="586" y="796" type="line"/>
    </contour>
    <contour>
      <point x="653" y="628" type="line"/>
      <point x="632" y="628" type="line"/>
      <point x="632" y="608" type="line"/>
      <point x="653" y="608" type="line"/>
    </contour>
    <contour>
      <point x="767" y="615" type="line"/>
      <point x="727" y="602" type="line"/>
      <point x="685" y="610" type="line"/>
      <point x="685" y="781" type="line"/>
      <point x="717" y="796" type="line"/>
      <point x="767" y="783" type="line"/>
    </contour>
    <contour>
      <point x="747" y="767" type="line"/>
      <point x="718" y="774" type="line"/>
      <point x="705" y="768" type="line"/>
      <point x="705" y="627" type="line"/>
      <point x="726" y="624" type="line"/>
      <point x="747" y="630" type="line"/>
    </contour>
    <contour>
      <point x="887" y="615" type="line"/>
      <point x="846" y="602" type="line"/>
      <point x="804" y="610" type="line"/>
      <point x="804" y="781" type="line"/>
      <point x="836" y="796" type="line"/>
      <point x="887" y="783" type="line"/>
    </contour>
    <contour>
      <point x="866" y="767" type="line"/>
      <point x="838" y="774" type="line"/>
      <point x="825" y="768" type="line"/>
      <point x="825" y="627" type="line"/>
      <point x="845" y="624" type="line"/>
      <point x="866" y="630" type="line"/>
    </contour>
    <contour>
      <point x="929" y="788" type="line"/>
      <point x="970" y="796" type="line"/>
      <point x="1010" y="788" type="line"/>
      <point x="1010" y="691" type="line"/>
      <point x="1003" y="687" type="line"/>
      <point x="1018" y="681" type="line"/>
      <point x="1018" y="608" type="line"/>
      <point x="922" y="608" type="line"/>
      <point x="922" y="681" type="line"/>
      <point x="937" y="687" type="line"/>
      <point x="929" y="691" type="line"/>
    </contour>
    <contour>
      <point x="949" y="771" type="line"/>
      <point x="949" y="704" type="line"/>
      <point x="970" y="696" type="line"/>
      <point x="990" y="704" type="line"/>
      <point x="990" y="771" type="line"/>
      <point x="970" y="775" type="line"/>
    </contour>
    <contour>
      <point x="942" y="668" type="line"/>
      <point x="942" y="628" type="line"/>
      <point x="998" y="628" type="line"/>
      <point x="998" y="668" type="line"/>
      <point x="970" y="677" type="line"/>
    </contour>
    <contour>
      <point x="0" y="0" type="line"/>
      <point x="1400" y="0" type="line"/>
      <point x="1400" y="320" type="line"/>
      <point x="0" y="320" type="line"/>
    </contour>
    <contour>
      <point x="0" y="1240" type="line"/>
      <point x="1400" y="1240" type="line"/>
      <point x="1400" y="1400" type="line"/>
      <point x="0" y="1400" type="line"/>
    </contour>
  </outline>
</glyph>
<glyph name="logo" format="1">
  <advance width="1686"/>
  <unicode hex="E002"/>
  <outline>
    <contour>
      <point x="185" y="584" type="line"/>
      <point x="565" y="666" type="line"/>
      <point x="561" y="684"/>
      <point x="559" y="703"/>
      <point x="559" y="723" type="curve" smooth="yes"/>
      <point x="559" y="741"/>
      <point x="560" y="758"/>
      <point x="564" y="775" type="curve"/>
      <point x="185" y="857" type="line"/>
      <point x="209" y="969" type="line"/>
      <point x="611" y="883" type="line"/>
      <point x="661" y="952"/>
      <point x="741" y="997"/>
      <point x="833" y="997" type="curve" smooth="yes"/>
      <point x="926" y="997"/>
      <point x="1009" y="950"/>
      <point x="1058" y="878" type="curve"/>
      <point x="1477" y="969" type="line"/>
      <point x="1501" y="857" type="line"/>
      <point x="1103" y="771" type="line"/>
      <point x="1106" y="755"/>
      <point x="1107" y="739"/>
      <point x="1107" y="723" type="curve" smooth="yes"/>
      <point x="1107" y="705"/>
      <point x="1105" y="687"/>
      <point x="1102" y="670" type="curve"/>
      <point x="1501" y="584" type="line"/>
      <point x="1477" y="472" type="line"/>
      <point x="1055" y="563" type="line"/>
      <point x="1005" y="494"/>
      <point x="924" y="449"/>
      <point x="833" y="449" type="curve" smooth="yes"/>
      <point x="743" y="449"/>
      <point x="663" y="492"/>
      <point x="613" y="559" type="curve"/>
      <point x="209" y="472" type="line"/>
    </contour>
    <contour>
      <point x="917" y="723" type="curve" smooth="yes"/>
      <point x="917" y="636"/>
      <point x="895" y="561"/>
      <point x="864" y="530" type="curve"/>
      <point x="956" y="545"/>
      <point x="1027" y="626"/>
      <point x="1027" y="723" type="curve" smooth="yes"/>
      <point x="1027" y="819"/>
      <point x="956" y="899"/>
      <point x="864" y="914" type="curve"/>
      <point x="895" y="883"/>
      <point x="917" y="809"/>
    </contour>
    <contour>
      <point x="639" y="723" type="curve" smooth="yes"/>
      <point x="639" y="626"/>
      <point x="709" y="546"/>
      <point x="801" y="530" type="curve"/>
      <point x="770" y="561"/>
      <point x="749" y="636"/>
      <point x="749" y="723" type="curve" smooth="yes"/>
      <point x="749" y="809"/>
      <point x="770" y="883"/>
      <point x="801" y="914" type="curve"/>
      <point x="709" y="899"/>
      <point x="639" y="819"/>
    </contour>
  </outline>
</glyph>
<glyph name="logoeye" format="1">
  <advance width="1686"/>
  <unicode hex="E004"/>
  <outline>
    <contour>
      <point x="833" y="449" type="curve" smooth="yes"/>
      <point x="682" y="449"/>
      <point x="559" y="571"/>
      <point x="559" y="723" type="curve" smooth="yes"/>
      <point x="559" y="874"/>
      <point x="682" y="997"/>
      <point x="833" y="997" type="curve" smooth="yes"/>
      <point x="984" y="997"/>
      <point x="1107" y="874"/>
      <point x="1107" y="723" type="curve" smooth="yes"/>
      <point x="1107" y="571"/>
      <point x="984" y="449"/>
    </contour>
    <contour>
      <point x="917" y="723" type="curve" smooth="yes"/>
      <point x="917" y="636"/>
      <point x="895" y="561"/>
      <point x="864" y="530" type="curve"/>
      <point x="956" y="545"/>
      <point x="1027" y="626"/>
      <point x="1027" y="723" type="curve" smooth="yes"/>
      <point x="1027" y="819"/>
      <point x="956" y="899"/>
      <point x="864" y="914" type="curve"/>
      <point x="895" y="883"/>
      <point x="917" y="809"/>
    </contour>
    <contour>
      <point x="639" y="723" type="curve" smooth="yes"/>
      <point x="639" y="626"/>
      <point x="709" y="546"/>
      <point x="801" y="530" type="curve"/>
      <point x="770" y="561"/>
      <point x="749" y="636"/>
      <point x="749" y="723" type="curve" smooth="yes"/>
      <point x="749" y="809"/>
      <point x="770" y="883"/>
      <point x="801" y="914" type="curve"/>
      <point x="709" y="899"/>
      <point x="639" y="819"/>
    </contour>
  </outline>
</glyph>
<glyph name="logobeam" format="1">
  <advance width="0"/>
  <unicode hex="E006"/>
  <outline>
    <contour>
      <point x="-584" y="670" type="curve"/>
      <point x="-185" y="584" type="line"/>
      <point x="-209" y="472" type="line"/>
      <point x="-631" y="563" type="line"/>
      <point x="-608" y="594"/>
      <point x="-592" y="631"/>
    </contour>
    <contour>
      <point x="-628" y="878" type="curve"/>
      <point x="-209" y="969" type="line"/>
      <point x="-185" y="857" type="line"/>
      <point x="-583" y="771" type="line"/>
      <point x="-590" y="810"/>
      <point x="-606" y="847"/>
    </contour>
    <contour>
      <point x="-1477" y="969" type="line"/>
      <point x="-1075" y="883" type="line"/>
      <point x="-1098" y="851"/>
      <point x="-1115" y="814"/>
      <point x="-1122" y="775" type="curve"/>
      <point x="-1501" y="857" type="line"/>
    </contour>
    <contour>
      <point x="-1501" y="584" type="line"/>
      <point x="-1121" y="666" type="line"/>
      <point x="-1113" y="626"/>
      <point x="-1096" y="590"/>
      <point x="-1073" y="559" type="curve"/>
      <point x="-1477" y="472" type="line"/>
    </contour>
  </outline>
</glyph>
<glyph name="logobeam.calt" format="1">
  <advance width="1686"/>
  <unicode hex="E007"/>
  <outline>
    <contour>
      <point x="1102" y="670" type="curve"/>
      <point x="1501" y="584" type="line"/>
      <point x="1477" y="472" type="line"/>
      <point x="1055" y="563" type="line"/>
      <point x="1078" y="594"/>
      <point x="1094" y="631"/>
    </contour>
    <contour>
      <point x="1058" y="878" type="curve"/>
      <point x="1477" y="969" type="line"/>
      <point x="1501" y="857" type="line"/>
      <point x="1103" y="771" type="line"/>
      <point x="1096" y="810"/>
      <point x="1080" y="847"/>
    </contour>
    <contour>
      <point x="209" y="969" type="line"/>
      <point x="611" y="883" type="line"/>
      <point x="588" y="851"/>
      <point x="571" y="814"/>
      <point x="564" y="775" type="curve"/>
      <point x="185" y="857" type="line"/>
    </contour>
    <contour>
      <point x="185" y="584" type="line"/>
      <point x="565" y="666" type="line"/>
      <point x="573" y="626"/>
      <point x="590" y="590"/>
      <point x="613" y="559" type="curve"/>
      <point x="209" y="472" type="line"/>
    </contour>
  </outline>
</glyph>
<glyph name="logofill" format="1">
  <advance width="0"/>
  <unicode hex="E008"/>
  <outline>
    <contour>
      <point x="-769" y="723" type="curve" smooth="yes"/>
      <point x="-769" y="636"/>
      <point x="-791" y="561"/>
      <point x="-822" y="530" type="curve"/>
      <point x="-730" y="545"/>
      <point x="-659" y="626"/>
      <point x="-659" y="723" type="curve" smooth="yes"/>
      <point x="-659" y="819"/>
      <point x="-730" y="899"/>
      <point x="-822" y="914" type="curve"/>
      <point x="-791" y="883"/>
      <point x="-769" y="809"/>
    </contour>
    <contour>
      <point x="-1047" y="723" type="curve" smooth="yes"/>
      <point x="-1047" y="626"/>
      <point x="-977" y="546"/>
      <point x="-885" y="530" type="curve"/>
      <point x="-916" y="561"/>
      <point x="-937" y="636"/>
      <point x="-937" y="723" type="curve" smooth="yes"/>
      <point x="-937" y="809"/>
      <point x="-916" y="883"/>
      <point x="-885" y="914" type="curve"/>
      <point x="-977" y="899"/>
      <point x="-1047" y="819"/>
    </contour>
  </outline>
</glyph>
<glyph name="sparrow" format="1">
  <advance width="1951"/>
  <unicode hex="E020"/>
  <outline>
    <contour>
      <point x="672" y="-40" type="curve" smooth="yes"/>
      <point x="481" y="-40"/>
      <point x="296" y="9"/>
      <point x="120" y="107" type="curve"/>
      <point x="155" y="249" type="line"/>
      <point x="272" y="252"/>
      <point x="374" y="270"/>
      <point x="460" y="301" type="curve"/>
      <point x="373" y="348"/>
      <point x="293" y="421"/>
      <point x="261" y="544" type="curve"/>
      <point x="299" y="574" type="line"/>
      <point x="251" y="612"/>
      <point x="214" y="657"/>
      <point x="187" y="708" type="curve" smooth="yes"/>
      <point x="142" y="796"/>
      <point x="131" y="898"/>
      <point x="131" y="991" type="curve"/>
      <point x="180" y="982" type="line"/>
      <point x="159" y="1038"/>
      <point x="145" y="1101"/>
      <point x="145" y="1164" type="curve" smooth="yes"/>
      <point x="145" y="1266"/>
      <point x="190" y="1352"/>
      <point x="247" y="1428" type="curve"/>
      <point x="314" y="1362" type="line" smooth="yes"/>
      <point x="460" y="1216"/>
      <point x="614" y="1082"/>
      <point x="868" y="1047" type="curve"/>
      <point x="881" y="1279"/>
      <point x="1061" y="1445"/>
      <point x="1301" y="1445" type="curve" smooth="yes"/>
      <point x="1402" y="1445"/>
      <point x="1496" y="1412"/>
      <point x="1570" y="1349" type="curve"/>
      <point x="1596" y="1350"/>
      <point x="1625" y="1351"/>
      <point x="1654" y="1351" type="curve" smooth="yes"/>
      <point x="1736" y="1351"/>
      <point x="1819" y="1347"/>
      <point x="1819" y="1347" type="curve"/>
      <point x="1876" y="1226" type="line"/>
      <point x="1871" y="1219"/>
      <point x="1770" y="1081"/>
      <point x="1713" y="1012" type="curve"/>
      <point x="1713" y="729"/>
      <point x="1619" y="477"/>
      <point x="1432" y="282" type="curve" smooth="yes"/>
      <point x="1237" y="77"/>
      <point x="960" y="-40"/>
    </contour>
    <contour>
      <point x="450" y="138" type="curve"/>
      <point x="520" y="121"/>
      <point x="592" y="112"/>
      <point x="664" y="112" type="curve" smooth="yes"/>
      <point x="910" y="112"/>
      <point x="1154" y="210"/>
      <point x="1323" y="387" type="curve" smooth="yes"/>
      <point x="1478" y="549"/>
      <point x="1562" y="763"/>
      <point x="1562" y="993" type="curve" smooth="yes"/>
      <point x="1562" y="1007"/>
      <point x="1562" y="1021"/>
      <point x="1559" y="1065" type="curve"/>
      <point x="1579" y="1088" type="line" smooth="yes"/>
      <point x="1598" y="1110"/>
      <point x="1633" y="1155"/>
      <point x="1667" y="1199" type="curve"/>
      <point x="1639" y="1199" type="line"/>
      <point x="1593" y="1199"/>
      <point x="1560" y="1197"/>
      <point x="1515" y="1191" type="curve"/>
      <point x="1440" y="1266"/>
      <point x="1371" y="1289"/>
      <point x="1301" y="1289" type="curve" smooth="yes"/>
      <point x="1142" y="1289"/>
      <point x="1019" y="1172"/>
      <point x="1019" y="1025" type="curve" smooth="yes"/>
      <point x="1019" y="990"/>
      <point x="1028" y="926"/>
      <point x="1037" y="883" type="curve"/>
      <point x="728" y="893"/>
      <point x="516" y="972"/>
      <point x="297" y="1168" type="curve"/>
      <point x="297" y="1060"/>
      <point x="356" y="950"/>
      <point x="392" y="920" type="curve"/>
      <point x="340" y="786" type="line"/>
      <point x="332" y="786"/>
      <point x="324" y="787"/>
      <point x="316" y="788" type="curve"/>
      <point x="347" y="722"/>
      <point x="405" y="672"/>
      <point x="495" y="633" type="curve"/>
      <point x="501" y="497" type="line"/>
      <point x="490" y="491"/>
      <point x="477" y="486"/>
      <point x="464" y="483" type="curve"/>
      <point x="506" y="442"/>
      <point x="569" y="410"/>
      <point x="660" y="386" type="curve"/>
      <point x="686" y="252" type="line"/>
      <point x="619" y="202"/>
      <point x="540" y="164"/>
    </contour>
  </outline>
</glyph>
<glyph name="printer" format="1">
  <advance width="1796"/>
  <unicode hex="F036"/>
  <outline>
    <contour>
      <point x="568" y="887" type="line"/>
      <point x="1224" y="887" type="line"/>
      <point x="1224" y="984" type="line"/>
      <point x="568" y="984" type="line"/>
    </contour>
    <contour>
      <point x="568" y="665" type="line"/>
      <point x="1224" y="665" type="line"/>
      <point x="1224" y="761" type="line"/>
      <point x="568" y="761" type="line"/>
    </contour>
    <contour>
      <point x="1435" y="543" type="line"/>
      <point x="1435" y="1150" type="line" smooth="yes"/>
      <point x="1435" y="1179"/>
      <point x="1423" y="1198"/>
      <point x="1412" y="1213" type="curve"/>
      <point x="1111" y="1416" type="line"/>
      <point x="1094" y="1435"/>
      <point x="1072" y="1445"/>
      <point x="1047" y="1445" type="curve" smooth="yes"/>
      <point x="359" y="1445" type="line"/>
      <point x="359" y="543" type="line"/>
      <point x="120" y="543" type="line"/>
      <point x="120" y="0" type="line"/>
      <point x="1676" y="0" type="line"/>
      <point x="1676" y="543" type="line"/>
    </contour>
    <contour>
      <point x="1292" y="1115" type="line"/>
      <point x="1292" y="543" type="line"/>
      <point x="500" y="543" type="line"/>
      <point x="500" y="1301" type="line"/>
      <point x="1009" y="1301" type="line"/>
      <point x="1009" y="1115" type="line"/>
    </contour>
    <contour>
      <point x="261" y="145" type="line"/>
      <point x="261" y="399" type="line"/>
      <point x="1535" y="399" type="line"/>
      <point x="1535" y="145" type="line"/>
    </contour>
    <contour>
      <point x="361" y="234" type="line"/>
      <point x="463" y="234" type="line"/>
      <point x="463" y="301" type="line"/>
      <point x="361" y="301" type="line"/>
    </contour>
    <contour>
      <point x="565" y="234" type="line"/>
      <point x="668" y="234" type="line"/>
      <point x="668" y="303" type="line"/>
      <point x="565" y="303" type="line"/>
    </contour>
  </outline>
</glyph>
<glyph name="thumbbackup" format="1">
  <advance width="2081"/>
  <unicode hex="F03C"/>
  <outline>
    <contour>
      <point x="1599" y="0" type="curve"/>
      <point x="917" y="0" type="line" smooth="yes"/>
      <point x="891" y="0"/>
      <point x="863" y="8"/>
      <point x="842" y="24" type="curve"/>
      <point x="842" y="-56" type="line"/>
      <point x="174" y="-56" type="line"/>
      <point x="100" y="758" type="line"/>
      <point x="100" y="765" type="line" smooth="yes"/>
      <point x="100" y="783"/>
      <point x="107" y="801"/>
      <point x="119" y="814" type="curve" smooth="yes"/>
      <point x="133" y="829"/>
      <point x="153" y="838"/>
      <point x="174" y="838" type="curve" smooth="yes"/>
      <point x="813" y="838" type="line"/>
      <point x="854" y="908" type="line" smooth="yes"/>
      <point x="880" y="953"/>
      <point x="984" y="1052"/>
      <point x="1039" y="1101" type="curve"/>
      <point x="1039" y="1343" type="line" smooth="yes"/>
      <point x="1039" y="1360"/>
      <point x="1045" y="1402"/>
      <point x="1102" y="1426" type="curve" smooth="yes"/>
      <point x="1130" y="1438"/>
      <point x="1168" y="1445"/>
      <point x="1208" y="1445" type="curve" smooth="yes"/>
      <point x="1264" y="1444"/>
      <point x="1321" y="1434"/>
      <point x="1361" y="1395" type="curve" smooth="yes"/>
      <point x="1388" y="1368"/>
      <point x="1431" y="1284"/>
      <point x="1439" y="1268" type="curve" smooth="yes"/>
      <point x="1494" y="1155"/>
      <point x="1494" y="1112"/>
      <point x="1494" y="1098" type="curve" smooth="yes"/>
      <point x="1494" y="1033"/>
      <point x="1462" y="948"/>
      <point x="1452" y="924" type="curve"/>
      <point x="1839" y="924" type="line" smooth="yes"/>
      <point x="1900" y="924"/>
      <point x="1986" y="853"/>
      <point x="1986" y="773" type="curve" smooth="yes"/>
      <point x="1986" y="729"/>
      <point x="1931" y="670"/>
      <point x="1898" y="650" type="curve"/>
      <point x="1918" y="628"/>
      <point x="1935" y="603"/>
      <point x="1935" y="572" type="curve" smooth="yes"/>
      <point x="1935" y="527"/>
      <point x="1886" y="474"/>
      <point x="1854" y="453" type="curve"/>
      <point x="1867" y="434"/>
      <point x="1882" y="409"/>
      <point x="1882" y="378" type="curve" smooth="yes"/>
      <point x="1882" y="320"/>
      <point x="1812" y="260"/>
      <point x="1775" y="233" type="curve"/>
      <point x="1787" y="208"/>
      <point x="1787" y="193"/>
      <point x="1787" y="186" type="curve" smooth="yes"/>
      <point x="1787" y="117"/>
      <point x="1664" y="0"/>
    </contour>
    <contour>
      <point x="924" y="147" type="line"/>
      <point x="1582" y="147" type="line"/>
      <point x="1594" y="156"/>
      <point x="1611" y="173"/>
      <point x="1625" y="188" type="curve"/>
      <point x="1613" y="204"/>
      <point x="1606" y="224"/>
      <point x="1606" y="252" type="curve"/>
      <point x="1616" y="316"/>
      <point x="1674" y="340"/>
      <point x="1713" y="377" type="curve"/>
      <point x="1689" y="392"/>
      <point x="1673" y="417"/>
      <point x="1672" y="455" type="curve"/>
      <point x="1676" y="517"/>
      <point x="1724" y="542"/>
      <point x="1766" y="573" type="curve"/>
      <point x="1739" y="593"/>
      <point x="1719" y="620"/>
      <point x="1719" y="655" type="curve" smooth="yes"/>
      <point x="1719" y="714"/>
      <point x="1783" y="743"/>
      <point x="1819" y="777" type="curve"/>
      <point x="1243" y="777" type="line"/>
      <point x="1263" y="833"/>
      <point x="1294" y="915"/>
      <point x="1315" y="976" type="curve" smooth="yes"/>
      <point x="1328" y="1015"/>
      <point x="1347" y="1067"/>
      <point x="1347" y="1098" type="curve"/>
      <point x="1345" y="1134"/>
      <point x="1278" y="1272"/>
      <point x="1257" y="1291" type="curve"/>
      <point x="1252" y="1293"/>
      <point x="1238" y="1298"/>
      <point x="1212" y="1298" type="curve" smooth="yes"/>
      <point x="1203" y="1298"/>
      <point x="1194" y="1298"/>
      <point x="1186" y="1296" type="curve"/>
      <point x="1186" y="1086" type="line" smooth="yes"/>
      <point x="1186" y="1056"/>
      <point x="1171" y="1023"/>
      <point x="1149" y="1002" type="curve" smooth="yes"/>
      <point x="1079" y="939"/>
      <point x="994" y="857"/>
      <point x="981" y="834" type="curve" smooth="yes"/>
      <point x="908" y="707" type="line" smooth="yes"/>
      <point x="894" y="683"/>
      <point x="869" y="665"/>
      <point x="842" y="658" type="curve"/>
      <point x="842" y="208" type="line"/>
    </contour>
    <contour>
      <point x="309" y="91" type="line"/>
      <point x="695" y="91" type="line"/>
      <point x="695" y="691" type="line"/>
      <point x="254" y="691" type="line"/>
    </contour>
  </outline>
</glyph>
<glyph name="zero.fitted" format="1">
  <advance width="917"/>
  <unicode hex="F639"/>
  <outline>
    <contour>
      <point x="777" y="50" type="line"/>
      <point x="468" y="-45" type="line"/>
      <point x="140" y="15" type="line"/>
      <point x="140" y="1334" type="line"/>
      <point x="386" y="1445" type="line"/>
      <point x="777" y="1344" type="line"/>
    </contour>
    <contour>
      <point x="617" y="1220" type="line"/>
      <point x="401" y="1276" type="line"/>
      <point x="300" y="1231" type="line"/>
      <point x="300" y="149" type="line"/>
      <point x="458" y="119" type="line"/>
      <point x="617" y="168" type="line"/>
    </contour>
  </outline>
</glyph>
<glyph name="two.fitted" format="1">
  <advance width="837"/>
  <unicode hex="F63A"/>
  <outline>
    <contour>
      <point x="742" y="1315" type="line"/>
      <point x="742" y="633" type="line"/>
      <point x="243" y="357" type="line"/>
      <point x="243" y="160" type="line"/>
      <point x="732" y="160" type="line"/>
      <point x="732" y="0" type="line"/>
      <point x="83" y="0" type="line"/>
      <point x="83" y="452" type="line"/>
      <point x="582" y="728" type="line"/>
      <point x="582" y="1193" type="line"/>
      <point x="308" y="1271" type="line"/>
      <point x="162" y="1185" type="line"/>
      <point x="80" y="1324" type="line"/>
      <point x="285" y="1445" type="line"/>
    </contour>
  </outline>
</glyph>
<glyph name="three.fitted" format="1">
  <advance width="928"/>
  <unicode hex="F63B"/>
  <outline>
    <contour>
      <point x="788" y="90" type="line"/>
      <point x="552" y="-45" type="line"/>
      <point x="83" y="59" type="line"/>
      <point x="112" y="210" type="line"/>
      <point x="525" y="116" type="line"/>
      <point x="634" y="179" type="line"/>
      <point x="634" y="636" type="line"/>
      <point x="296" y="636" type="line"/>
      <point x="296" y="790" type="line"/>
      <point x="634" y="790" type="line"/>
      <point x="634" y="1221" type="line"/>
      <point x="525" y="1284" type="line"/>
      <point x="151" y="1190" type="line"/>
      <point x="122" y="1341" type="line"/>
      <point x="552" y="1445" type="line"/>
      <point x="788" y="1310" type="line"/>
    </contour>
  </outline>
</glyph>
<glyph name="five.fitted" format="1">
  <advance width="944"/>
  <unicode hex="F63D"/>
  <outline>
    <contour>
      <point x="829" y="790" type="line"/>
      <point x="814" y="51" type="line"/>
      <point x="505" y="-45" type="line"/>
      <point x="122" y="41" type="line"/>
      <point x="157" y="198" type="line"/>
      <point x="498" y="121" type="line"/>
      <point x="656" y="170" type="line"/>
      <point x="665" y="630" type="line"/>
      <point x="120" y="630" type="line"/>
      <point x="120" y="1400" type="line"/>
      <point x="789" y="1400" type="line"/>
      <point x="789" y="1240" type="line"/>
      <point x="280" y="1240" type="line"/>
      <point x="280" y="790" type="line"/>
    </contour>
  </outline>
</glyph>
<glyph name="six.fitted" format="1">
  <advance width="994"/>
  <unicode hex="F63E"/>
  <outline>
    <contour>
      <point x="874" y="790" type="line"/>
      <point x="874" y="64" type="line"/>
      <point x="631" y="-45" type="line"/>
      <point x="140" y="50" type="line"/>
      <point x="140" y="1400" type="line"/>
      <point x="845" y="1400" type="line"/>
      <point x="845" y="1240" type="line"/>
      <point x="300" y="1240" type="line"/>
      <point x="300" y="790" type="line"/>
    </contour>
    <contour>
      <point x="300" y="182" type="line"/>
      <point x="611" y="122" type="line"/>
      <point x="714" y="168" type="line"/>
      <point x="714" y="630" type="line"/>
      <point x="300" y="630" type="line"/>
    </contour>
  </outline>
</glyph>
<glyph name="seven.fitted" format="1">
  <advance width="915"/>
  <unicode hex="F63F"/>
  <outline>
    <contour>
      <point x="673" y="788" type="line"/>
      <point x="745" y="822" type="line"/>
      <point x="813" y="676" type="line"/>
      <point x="621" y="587" type="line"/>
      <point x="466" y="-19" type="line"/>
      <point x="314" y="20" type="line"/>
      <point x="464" y="608" type="line"/>
      <point x="264" y="640" type="line"/>
      <point x="290" y="798" type="line"/>
      <point x="504" y="764" type="line"/>
      <point x="627" y="1243" type="line"/>
      <point x="65" y="1243" type="line"/>
      <point x="65" y="1400" type="line"/>
      <point x="830" y="1400" type="line"/>
    </contour>
  </outline>
</glyph>
<glyph name="nine.fitted" format="1">
  <advance width="896"/>
  <unicode hex="F641"/>
  <outline>
    <contour>
      <point x="447" y="-45" type="line"/>
      <point x="125" y="14" type="line"/>
      <point x="155" y="172" type="line"/>
      <point x="438" y="119" type="line"/>
      <point x="596" y="168" type="line"/>
      <point x="596" y="629" type="line"/>
      <point x="120" y="629" type="line"/>
      <point x="120" y="1334" type="line"/>
      <point x="366" y="1445" type="line"/>
      <point x="756" y="1344" type="line"/>
      <point x="756" y="50" type="line"/>
    </contour>
    <contour>
      <point x="596" y="790" type="line"/>
      <point x="596" y="1220" type="line"/>
      <point x="380" y="1276" type="line"/>
      <point x="280" y="1231" type="line"/>
      <point x="280" y="790" type="line"/>
    </contour>
  </outline>
</glyph>
<glyph name="one.fitted" format="1">
  <advance width="594"/>
  <unicode hex="F6DC"/>
  <outline>
    <contour>
      <point x="454" y="1373" type="line"/>
      <point x="454" y="0" type="line"/>
      <point x="294" y="0" type="line"/>
      <point x="294" y="1245" type="line"/>
      <point x="156" y="1178" type="line"/>
      <point x="86" y="1322" type="line"/>
      <point x="339" y="1445" type="line"/>
    </contour>
  </outline>
</glyph>
